<svg version="1.1" id="Layer_1" xmlns="http://www.w3.org/2000/svg" xmlns:xlink="http://www.w3.org/1999/xlink" x="0px" y="0px"
	 width="100%" viewBox="0 0 1024 1024" enable-background="new 0 0 1024 1024" xml:space="preserve">
<path fill="#000000" opacity="1.000000" stroke="none" 
	d="
M901.000366,533.367737 
	C894.204712,533.368225 887.908936,533.368225 881.571228,533.368225 
	C882.395752,523.469482 885.427429,520.482971 896.229126,519.473511 
	C885.731873,515.819946 876.375671,512.548889 867.009216,509.307404 
	C856.467651,505.659363 845.908020,502.063049 835.377991,498.382202 
	C833.440186,497.704865 831.700317,497.406464 829.609558,498.108368 
	C808.465942,505.206329 787.283447,512.188232 766.116455,519.216797 
	C765.851868,519.304688 765.648499,519.576965 765.219910,519.921021 
	C772.381531,520.489624 779.472107,519.145508 786.688477,520.794800 
	C786.178345,524.910034 784.300415,528.056702 782.854431,531.326660 
	C781.733948,533.860596 779.268738,533.339050 777.156860,533.343262 
	C763.323730,533.370911 749.490662,533.359680 735.657532,533.364746 
	C733.990967,533.365356 732.321716,533.329773 730.658386,533.408997 
	C722.121338,533.815796 719.365479,536.581787 719.327209,545.164246 
	C719.227600,567.496826 719.222900,589.829773 719.179932,612.162598 
	C719.176086,614.162537 719.095032,616.165588 719.178711,618.161743 
	C719.351868,622.289795 717.623230,622.978271 713.930847,621.642944 
	C697.648010,615.754028 681.302429,610.038635 664.983276,604.250061 
	C607.717285,583.937134 550.375366,563.840881 492.802185,544.414124 
	C472.214203,537.467102 451.265381,531.662598 429.261566,533.482483 
	C410.812714,535.008362 394.650421,527.962280 378.211975,521.639465 
	C358.163818,513.928223 338.123322,506.185120 318.242981,498.055939 
	C311.256561,495.199219 304.022156,495.107300 296.328369,494.542114 
	C296.710358,490.140747 298.222046,486.493591 300.136017,483.109772 
	C301.401093,480.873169 304.065033,481.751709 306.144379,481.748932 
	C344.643646,481.697418 383.143127,481.754150 421.642120,481.637939 
	C430.467285,481.611328 439.251801,480.623810 447.865997,478.592072 
	C452.250183,477.558014 456.560760,476.191467 460.211029,473.391479 
	C462.243530,471.832458 464.146698,469.964813 463.461304,467.128845 
	C462.823120,464.488190 460.387756,463.834503 458.058014,463.374390 
	C454.624634,462.696228 451.171417,462.304138 447.646057,462.306305 
	C392.813690,462.339600 337.981232,462.356140 283.149017,462.256287 
	C279.144196,462.248993 277.021393,462.852722 277.198730,467.623444 
	C277.405609,473.188385 273.162689,476.075165 268.831512,478.493195 
	C261.296997,482.699646 252.957657,484.409851 244.611481,485.988770 
	C239.070587,487.036957 233.472015,487.780304 226.631668,488.860260 
	C233.853561,489.915802 239.908157,490.656982 245.905045,491.722839 
	C250.673141,492.570312 255.289963,494.058472 259.405029,496.734161 
	C267.702393,502.129211 268.562866,510.200897 261.432251,517.284241 
	C256.339844,522.342834 249.846527,525.040222 243.127045,527.151917 
	C228.691620,531.688477 213.748322,533.149170 198.764374,533.215027 
	C142.099686,533.463989 85.433434,533.363220 28.767757,533.367004 
	C27.157198,533.367126 25.421789,533.811218 23.779499,532.438232 
	C24.069918,528.651978 25.816137,525.268494 27.518847,521.878296 
	C28.311586,520.299866 29.848555,520.109741 31.370390,520.069946 
	C33.868820,520.004456 36.369381,520.009949 38.869083,520.004944 
	C93.366966,519.895081 147.864868,519.795044 202.362701,519.669983 
	C208.050034,519.656921 213.663620,518.889893 219.072159,517.119873 
	C222.341705,516.049866 225.405289,514.275452 225.547562,510.361847 
	C225.689468,506.457794 222.360245,504.999695 219.455994,503.949402 
	C206.688766,499.332275 193.379150,496.940216 179.894928,496.388824 
	C150.081390,495.169678 120.237915,496.133423 90.408302,495.865540 
	C86.795776,495.833099 83.155983,495.950745 79.655090,494.876282 
	C81.111862,484.523560 82.716774,482.984528 92.374596,483.061066 
	C115.869034,483.247223 139.362427,483.043030 162.860382,483.414215 
	C182.698105,483.727539 202.416016,481.688110 221.745132,476.818970 
	C224.497238,476.125702 227.223343,475.380005 229.611603,473.749542 
	C231.326340,472.578979 232.816360,471.232849 232.635254,468.935242 
	C232.433090,466.370911 230.523239,465.183807 228.399933,464.561035 
	C222.277786,462.765350 215.941895,462.390320 209.617569,462.383728 
	C160.785141,462.333038 111.952614,462.362457 63.120155,462.324524 
	C60.860069,462.322784 58.466167,462.906403 56.181995,461.399445 
	C56.242821,457.640289 58.139126,454.455078 59.538597,451.131134 
	C60.322353,449.269531 62.146389,449.204315 63.796314,449.132996 
	C66.458466,449.017914 69.127594,449.049591 71.793816,449.045898 
	C175.125168,448.902313 278.457092,448.909668 381.787354,448.495148 
	C402.274841,448.412964 422.773224,447.854614 443.267517,447.823669 
	C458.752167,447.800293 474.219788,448.514679 489.579559,450.682861 
	C494.048309,451.313690 498.426208,452.363800 502.349854,454.728790 
	C507.856354,458.047882 509.377136,463.015381 506.589661,468.838135 
	C504.507050,473.188477 500.985046,476.223572 496.986115,478.759857 
	C482.532501,487.926819 466.203918,491.019562 449.643677,493.302368 
	C428.264862,496.249359 406.743561,495.104370 385.161072,495.665131 
	C401.900543,502.751556 418.649261,509.770844 435.764557,515.912109 
	C444.691437,519.115234 453.815369,520.153137 463.238953,520.040100 
	C476.819733,519.877258 489.003052,515.923584 500.292480,508.375641 
	C526.192871,491.058960 552.136047,473.799225 578.312988,456.905579 
	C596.139587,445.400909 615.545837,444.106232 635.301514,450.936066 
	C644.985779,454.284088 652.533997,461.595734 660.764282,467.511505 
	C680.518066,481.710083 700.253662,495.942444 719.697510,510.559052 
	C727.080627,516.109131 733.701111,517.705750 742.924683,514.179626 
	C763.589905,506.279327 784.807434,499.824829 805.790100,492.751923 
	C807.461304,492.188568 809.366211,492.008911 810.979004,489.899109 
	C803.659058,487.090729 796.605286,484.282745 789.479431,481.671570 
	C774.316406,476.115204 759.089966,470.731140 743.944641,465.127563 
	C738.547852,463.130798 733.104309,462.026886 727.339844,462.298492 
	C725.235718,462.397644 723.017151,462.775635 721.002747,461.704895 
	C721.547058,452.542664 724.964355,449.089294 733.534912,449.083191 
	C763.201050,449.062134 792.867126,449.055878 822.533264,449.069397 
	C824.646118,449.070374 826.850952,448.740387 829.064758,450.114807 
	C828.974487,453.891998 827.250671,457.131012 825.852295,460.436127 
	C825.070496,462.283905 823.274902,462.303131 821.572693,462.303070 
	C817.079407,462.302887 812.586182,462.303009 808.092896,462.303009 
	C808.008179,462.527435 807.923462,462.751831 807.838745,462.976257 
	C808.898376,463.421692 809.937561,463.925720 811.020752,464.303619 
	C823.911743,468.800720 836.826538,473.230347 849.692200,477.798492 
	C852.691223,478.863342 855.421448,478.750336 858.417358,477.723419 
	C870.228760,473.674713 882.107788,469.823669 893.951965,465.869965 
	C895.491028,465.356201 896.973022,464.671478 898.475769,464.068146 
	C897.762573,462.050873 895.563293,462.883453 894.618164,461.157867 
	C894.833618,457.680542 897.076965,454.655243 898.412415,451.317322 
	C899.241028,449.246033 901.258362,449.136871 903.083008,449.134125 
	C928.248657,449.096313 953.414307,449.096405 978.579956,449.127594 
	C979.529297,449.128754 980.478027,449.538788 981.752258,449.833527 
	C981.509033,453.885468 979.482056,457.167175 978.089539,460.624664 
	C977.310242,462.559631 975.404724,462.310608 973.759338,462.322479 
	C969.426270,462.353699 965.069946,462.626587 960.763733,462.286407 
	C945.146484,461.052673 930.386047,464.321960 915.834595,469.730194 
	C901.528931,475.047058 886.989380,479.734955 872.482910,485.785126 
	C879.443970,488.259460 886.411255,490.716644 893.364990,493.211273 
	C915.463684,501.138947 937.581604,509.014130 959.638062,517.057495 
	C966.190491,519.446899 972.875183,520.125488 979.756592,520.001953 
	C982.012329,519.961365 984.436157,519.426331 986.807129,521.235168 
	C986.358276,524.780029 984.473633,527.934570 983.107300,531.236694 
	C981.930054,534.081665 979.223267,533.343689 976.992676,533.346924 
	C951.828552,533.383179 926.664429,533.368347 901.000366,533.367737 
M532.501709,519.975037 
	C549.672241,520.123779 566.858826,519.761475 584.740173,520.226562 
	C583.774353,523.247925 583.140076,524.785828 582.797180,526.386169 
	C581.637024,531.800293 578.643311,534.078979 572.892090,533.472473 
	C567.949280,532.951172 562.904297,533.341492 557.906189,533.427002 
	C555.812317,533.462769 553.568481,533.421021 552.404419,535.694092 
	C553.341064,538.298828 555.606262,538.818176 557.542297,539.575500 
	C571.652039,545.095154 585.783630,550.559509 599.937012,555.966309 
	C603.351990,557.270874 606.856079,558.608276 610.545654,558.620056 
	C641.039734,558.717346 671.534241,558.720642 702.028564,558.734253 
	C703.515503,558.734924 704.937317,558.699402 705.853943,557.032532 
	C709.523865,550.359314 704.212891,537.162964 696.911926,535.218323 
	C690.258606,533.446167 683.437805,533.279419 676.593689,533.305237 
	C674.556885,533.312927 672.293762,534.012268 670.481812,532.370483 
	C671.654297,523.601257 675.748474,518.273499 685.902100,519.585327 
	C682.182556,516.284790 678.754761,513.913147 675.651245,511.174133 
	C671.160339,507.210602 666.197449,505.807831 660.141113,505.865662 
	C627.814392,506.174347 595.483948,506.109283 563.154785,506.115387 
	C561.351257,506.115723 559.190186,506.926422 557.602173,504.642242 
	C564.628784,498.570496 571.064270,493.193878 581.608887,493.666321 
	C602.397522,494.597748 623.257935,493.953705 644.088379,493.878876 
	C645.948181,493.872192 648.052856,494.566833 650.099548,492.596252 
	C648.506165,491.227844 647.087402,489.871521 645.531982,488.696014 
	C635.431335,481.062256 625.195923,473.602173 615.221558,465.807678 
	C609.665527,461.465973 604.016357,461.167572 597.973145,464.127411 
	C594.837952,465.662964 591.731201,467.320984 588.821167,469.241211 
	C565.461731,484.655090 542.147461,500.137329 518.839844,515.629517 
	C517.417053,516.575256 515.688293,517.385315 515.223022,519.977173 
	C520.898438,519.977173 526.200806,519.977173 532.501709,519.975037 
M702.116882,567.031189 
	C680.414185,567.031189 658.711426,567.031189 637.008728,567.031189 
	C657.543030,576.469421 678.154053,584.846680 699.141357,592.249634 
	C703.386353,593.747009 705.413940,592.179077 705.617249,587.522034 
	C705.856750,582.036072 705.776428,576.536011 705.821777,571.041931 
	C705.838135,569.064148 705.457153,567.342651 702.116882,567.031189 
z"/>
<path fill="#000000" opacity="1.000000" stroke="none" 
	d="
M278.178589,408.826294 
	C278.281708,408.395905 278.338837,408.229523 278.327820,408.067749 
	C278.296143,407.601105 277.882355,407.409302 277.696869,407.777771 
	C275.226624,412.684570 272.749664,417.589966 270.407990,422.558685 
	C269.238068,425.041046 267.801575,426.623199 264.723175,426.350739 
	C261.240021,426.042511 261.648499,423.287262 261.236877,421.189880 
	C260.477692,417.321838 260.010437,413.396515 258.566010,409.400360 
	C257.818481,413.022156 257.076904,416.645233 256.320251,420.265106 
	C256.048737,421.564117 255.795807,422.870941 255.437790,424.147064 
	C254.765976,426.541779 252.824753,426.403076 250.974457,426.186615 
	C248.578995,425.906494 248.681320,424.169586 249.026230,422.433685 
	C250.549149,414.769135 252.191040,407.126831 253.602753,399.442139 
	C254.311172,395.585785 257.144897,396.076447 259.746216,396.046204 
	C262.302551,396.016479 264.136261,396.698792 264.446594,399.886444 
	C264.921875,404.768341 265.879150,409.603333 266.811249,415.615326 
	C270.051178,409.682739 272.747314,404.768707 275.420959,399.842499 
	C277.292480,396.394257 281.561615,394.901398 285.154144,396.339417 
	C286.963867,397.063873 287.111664,398.254364 286.779755,399.933472 
	C285.231873,407.764587 283.805939,415.619873 282.242676,423.447815 
	C281.445709,427.438538 278.623718,426.339447 275.715515,425.905426 
	C275.244080,419.979492 277.639862,414.655396 278.178589,408.826294 
z"/>
<path fill="#000000" opacity="1.000000" stroke="none" 
	d="
M730.452393,597.823486 
	C735.464111,588.005371 744.231506,583.269226 753.330994,585.198425 
	C763.580933,587.371582 770.766418,595.177124 770.986389,605.329651 
	C771.168335,613.727234 767.599548,620.575500 759.991211,624.647705 
	C752.042786,628.901672 744.105713,628.245544 737.039978,622.758972 
	C730.361938,617.573425 727.630737,610.473694 729.134460,601.990967 
	C729.364441,600.693787 729.893127,599.449524 730.452393,597.823486 
M733.675110,608.783447 
	C733.964722,609.736572 734.191833,610.714050 734.553589,611.638977 
	C738.212463,620.993530 748.327026,625.125183 757.004761,620.828918 
	C765.319275,616.712402 768.449097,606.089417 763.800781,597.762024 
	C760.276489,591.448303 752.832458,588.187866 746.016235,589.972473 
	C737.977539,592.077148 733.396912,598.673828 733.675110,608.783447 
z"/>
<path fill="#000000" opacity="1.000000" stroke="none" 
	d="
M408.600464,401.770264 
	C408.929504,400.236023 409.055786,399.048401 409.513641,398.006470 
	C410.440979,395.896149 412.306824,395.854614 414.177887,396.350952 
	C416.134949,396.870087 415.974701,398.332062 415.651794,399.946594 
	C414.122986,407.590485 412.646851,415.245178 411.199219,422.904938 
	C410.766815,425.192841 409.622131,426.425018 407.167084,426.384308 
	C404.777679,426.344666 402.556793,426.446198 401.630798,423.430756 
	C400.075500,418.366058 398.266663,413.379181 396.283691,407.531464 
	C394.252716,411.967773 394.228455,416.045349 393.302216,419.883087 
	C392.952393,421.332550 392.676392,422.801086 392.289337,424.240051 
	C391.622528,426.718933 389.619873,426.432007 387.834381,426.134613 
	C385.777313,425.791992 385.933868,424.181335 386.232544,422.625946 
	C387.702545,414.970612 389.248627,407.328705 390.599091,399.652344 
	C391.027130,397.219147 392.322327,396.208008 394.589752,396.071106 
	C397.079651,395.920807 399.241913,396.337158 400.145233,399.135864 
	C401.764832,404.153717 403.433197,409.155823 405.495483,415.423676 
	C406.709442,410.157440 407.628571,406.170105 408.600464,401.770264 
z"/>
<path fill="#000000" opacity="1.000000" stroke="none" 
	d="
M966.778931,412.252502 
	C968.142700,404.287476 971.386658,398.361664 979.457886,396.235443 
	C990.731079,393.265808 998.479431,401.309204 996.131836,413.635712 
	C994.511292,422.144745 986.495361,428.076630 977.860229,427.156860 
	C970.533875,426.376465 966.831848,421.553894 966.778931,412.252502 
M987.399170,403.105377 
	C983.535339,399.974426 980.250366,401.418488 977.350342,404.542328 
	C974.423401,407.695099 973.905457,411.620209 974.223450,415.738373 
	C974.418701,418.266998 975.484070,420.241180 977.889893,421.225403 
	C980.317749,422.218658 982.462219,421.364014 984.388916,419.848846 
	C988.853943,416.337341 990.407227,409.085114 987.399170,403.105377 
z"/>
<path fill="#000000" opacity="1.000000" stroke="none" 
	d="
M859.624329,399.801331 
	C859.828979,397.951080 860.450989,396.957550 861.887756,396.383789 
	C868.477661,393.752045 879.872742,397.839630 882.284729,403.758881 
	C885.577759,411.840088 881.399780,421.795410 873.427307,424.915741 
	C868.299988,426.922516 862.952942,426.370422 857.653137,426.292053 
	C854.789612,426.249756 854.548218,424.388123 855.016174,422.139130 
	C856.536316,414.833191 858.049866,407.525909 859.624329,399.801331 
M863.209595,417.849396 
	C862.623718,420.162537 863.743347,420.714630 865.850647,420.698212 
	C872.787476,420.644196 878.253113,412.244385 875.309570,405.888947 
	C874.067078,403.206146 871.665039,402.151398 868.764709,402.264038 
	C865.760498,402.380768 865.687073,404.792999 865.267090,406.873993 
	C864.579590,410.280182 863.947083,413.697449 863.209595,417.849396 
z"/>
<path fill="#000000" opacity="1.000000" stroke="none" 
	d="
M82.668877,408.910217 
	C94.094749,408.433533 94.094742,408.433533 92.027893,418.034149 
	C90.231979,426.376221 90.222420,426.385834 82.944260,427.139069 
	C76.226379,427.834320 70.188232,424.806793 67.950417,419.621124 
	C65.370888,413.643616 67.268898,404.844971 72.126678,400.260956 
	C76.749367,395.898773 86.983704,394.178619 92.329163,396.682007 
	C94.079720,397.501862 94.409515,398.619415 94.033279,400.253754 
	C93.618195,402.056824 92.435745,402.675659 90.694992,402.325226 
	C89.558105,402.096344 88.445869,401.731781 87.303398,401.546112 
	C78.838547,400.170380 71.829994,408.258423 74.517181,416.332886 
	C75.749977,420.037170 78.913765,421.646393 82.300049,421.350159 
	C85.838249,421.040588 85.152031,417.659088 85.413017,414.848602 
	C83.609749,414.515961 82.041435,414.226654 80.444283,413.932037 
	C80.329247,411.851624 80.353683,410.083191 82.668877,408.910217 
z"/>
<path fill="#000000" opacity="1.000000" stroke="none" 
	d="
M621.490417,419.446014 
	C622.900452,412.703339 624.375122,406.385468 625.478333,400.003448 
	C625.938843,397.339386 627.230042,396.299927 629.697876,396.056732 
	C633.398010,395.692139 637.077881,396.024109 640.584229,397.040588 
	C645.696106,398.522430 647.619141,405.585815 643.377441,409.192596 
	C639.719971,412.302612 640.154724,415.114014 641.318054,418.730011 
	C642.023438,420.922546 642.830627,423.143707 642.467712,425.528534 
	C636.585388,427.187653 635.752197,426.716888 634.595886,421.153839 
	C634.392944,420.177704 634.111389,419.218018 633.874146,418.248779 
	C633.471985,416.605316 633.112671,414.716309 630.933960,414.872314 
	C628.913330,415.016968 629.311707,417.109283 628.810547,418.403107 
	C628.456909,419.316010 628.373230,420.345551 628.248596,421.333069 
	C627.686096,425.789001 625.451111,427.427490 621.110535,425.731689 
	C620.142395,423.643127 620.858093,421.748077 621.490417,419.446014 
M634.288940,408.549286 
	C634.888367,408.295532 635.540833,408.122955 636.077332,407.772766 
	C637.644165,406.749939 638.282837,405.330505 637.359436,403.582367 
	C636.647827,402.235321 635.285828,402.107758 633.934509,402.219391 
	C631.808960,402.394989 631.493958,403.945038 631.213928,405.675446 
	C630.888428,407.685791 631.198792,408.946289 634.288940,408.549286 
z"/>
<path fill="#000000" opacity="1.000000" stroke="none" 
	d="
M209.449310,420.475891 
	C210.045990,422.419037 210.701431,423.972198 210.145615,425.671844 
	C204.143951,427.176117 203.622681,426.879730 202.336533,421.251740 
	C201.318176,416.795563 201.318176,416.795563 198.480728,414.697571 
	C195.658813,416.260406 196.326736,419.323059 195.886246,421.703766 
	C195.080078,426.061066 192.932068,427.276978 188.395035,425.555420 
	C188.606964,418.713593 190.620010,412.053986 192.009796,405.352234 
	C192.630676,402.358307 191.729660,398.053223 195.601807,396.690948 
	C200.107971,395.105682 204.885117,395.736237 209.248123,397.560577 
	C213.538605,399.354523 215.240067,406.036407 211.413483,408.809814 
	C206.364029,412.469482 208.601685,416.116028 209.449310,420.475891 
M202.809753,408.360840 
	C204.880280,407.496429 206.292496,406.155914 205.285736,403.768005 
	C204.593445,402.125916 202.920670,402.096802 201.397537,402.263123 
	C198.856354,402.540588 198.941498,404.829193 198.707474,406.455994 
	C198.314011,409.191345 200.511459,408.557220 202.809753,408.360840 
z"/>
<path fill="#000000" opacity="1.000000" stroke="none" 
	d="
M559.074585,415.133789 
	C562.219116,409.803436 565.211365,404.806305 568.097656,399.748718 
	C569.541687,397.218292 571.364197,395.699921 574.496948,396.018494 
	C577.900269,396.364655 578.053528,398.886383 578.559937,401.374573 
	C579.950500,408.206848 581.468384,415.013184 582.875916,421.842102 
	C583.235352,423.586304 583.947388,425.691132 581.210815,426.199310 
	C578.969971,426.615417 577.070007,426.348236 575.934265,423.741882 
	C573.770630,418.776672 565.661499,418.423401 562.342834,423.014740 
	C559.600464,426.808807 559.600525,426.808838 554.235962,425.618439 
	C554.497314,421.639771 557.376770,418.835815 559.074585,415.133789 
M573.618103,409.929688 
	C573.216675,408.487762 572.815247,407.045868 572.413757,405.603943 
	C570.959900,408.205566 568.733459,410.035461 568.557068,413.054138 
	C571.343384,414.185547 573.561279,414.764008 573.618103,409.929688 
z"/>
<path fill="#000000" opacity="1.000000" stroke="none" 
	d="
M347.237854,416.956635 
	C347.474335,420.153900 349.010315,422.781128 348.219330,425.934845 
	C345.574066,426.404602 342.953918,427.581238 341.322754,423.758759 
	C339.128937,418.617798 330.817322,418.125153 327.855164,423.066986 
	C325.802338,426.491852 323.350433,427.001038 320.076904,425.848816 
	C319.129303,424.239166 320.185028,423.188416 320.813660,422.083130 
	C325.082947,414.575989 329.442627,407.119263 333.626465,399.565063 
	C335.095825,396.912079 337.008362,395.686920 340.060333,395.976471 
	C343.223419,396.276611 343.495575,398.778595 343.990112,400.966187 
	C345.158722,406.135559 346.134674,411.348450 347.237854,416.956635 
M336.377563,407.602478 
	C335.596710,409.468140 333.570465,410.872101 334.156921,413.316345 
	C335.846924,413.879456 337.406647,414.131622 339.216156,412.914276 
	C338.195312,411.080383 340.289001,408.063019 336.377563,407.602478 
z"/>
<path fill="#000000" opacity="1.000000" stroke="none" 
	d="
M818.550171,396.318787 
	C820.175598,397.229767 819.997131,398.329010 819.749268,399.535400 
	C818.546814,405.388458 817.640747,411.314514 816.167847,417.097046 
	C814.003845,425.592560 805.418579,429.571167 797.327637,426.061798 
	C792.910217,424.145813 791.152649,420.480682 791.802429,415.933228 
	C792.599731,410.354156 793.842896,404.837433 794.943359,399.303711 
	C795.465698,396.677490 797.275146,395.802338 799.754028,396.157898 
	C802.813965,396.596832 802.113892,398.688751 801.730652,400.713470 
	C800.835144,405.443665 799.961304,410.179718 799.199707,414.932770 
	C798.748840,417.747375 799.048401,420.536377 802.371826,421.327667 
	C805.755615,422.133331 807.885742,420.017548 808.703064,417.077454 
	C810.210999,411.653748 811.549744,406.157410 812.495117,400.612244 
	C813.101868,397.052917 814.661499,395.589874 818.550171,396.318787 
z"/>
<path fill="#000000" opacity="1.000000" stroke="none" 
	d="
M730.956055,412.023254 
	C733.577637,407.546661 736.100403,403.432953 738.419678,399.207581 
	C739.820312,396.655701 741.824524,395.751251 744.591003,396.070953 
	C747.632507,396.422455 747.943848,398.696472 748.411316,401.084412 
	C749.995483,409.177307 751.714294,417.243805 753.414001,425.476959 
	C750.034363,426.421509 747.131958,427.567627 745.929932,423.617828 
	C745.320801,421.616150 745.179016,419.381805 742.414917,419.850555 
	C739.041260,420.422668 734.711914,418.176208 732.546021,422.566803 
	C730.713379,426.281708 728.136230,427.196808 724.084534,425.564392 
	C725.326172,420.616089 728.643066,416.759705 730.956055,412.023254 
M739.739441,409.154114 
	C739.133667,410.471100 737.876770,411.568176 738.354126,413.342102 
	C740.094055,414.044891 742.213562,414.665100 743.208984,412.746918 
	C744.480469,410.296692 743.005737,407.864014 742.097717,404.666626 
	C741.129456,406.538818 740.600464,407.561707 739.739441,409.154114 
z"/>
<path fill="#000000" opacity="1.000000" stroke="none" 
	d="
M135.334686,426.391663 
	C131.296799,426.808441 130.057419,425.269257 130.789352,421.759277 
	C132.277283,414.623840 133.715668,407.476379 135.036255,400.308411 
	C135.620651,397.136383 137.271881,395.778534 140.493546,395.941498 
	C143.807343,396.109100 147.137604,395.938477 150.453690,396.079590 
	C152.042618,396.147217 154.108917,396.112854 153.866013,398.600586 
	C153.673157,400.575653 152.641739,402.041687 150.376175,402.102112 
	C148.882690,402.141937 147.378311,402.287415 145.896881,402.165680 
	C142.210449,401.862701 140.561615,403.301819 141.371964,407.138580 
	C143.347992,408.365906 145.581360,407.622467 147.672760,407.925140 
	C149.241348,408.152130 150.735687,408.443604 150.576187,410.516846 
	C150.451080,412.143036 149.738541,413.422791 147.969055,413.683746 
	C146.827225,413.852112 145.617203,414.063995 144.508484,413.864105 
	C139.532944,412.967010 138.573395,415.743286 138.616226,419.579071 
	C140.249374,421.159088 142.019089,420.379730 143.587326,420.681549 
	C145.721573,421.092377 149.309326,419.431946 149.085403,423.614502 
	C148.879822,427.454376 145.517349,426.207367 143.258408,426.362305 
	C140.779129,426.532379 138.278854,426.395935 135.334686,426.391663 
z"/>
<path fill="#000000" opacity="1.000000" stroke="none" 
	d="
M509.354462,420.669250 
	C512.594360,422.368713 515.553772,420.217468 518.691833,420.880463 
	C519.929260,424.450500 518.241760,426.048065 515.007568,426.855194 
	C508.430695,428.496643 501.260925,425.362854 498.569763,419.598083 
	C495.417725,412.846191 498.201813,402.890045 504.545105,398.737244 
	C509.224091,395.673981 514.384705,394.872437 519.809326,396.248260 
	C521.577881,396.696838 523.399475,397.206482 522.728210,399.893829 
	C522.040833,402.645477 520.491394,402.520142 518.231812,401.981323 
	C512.094971,400.517975 507.569733,402.767151 505.238617,408.153412 
	C503.010315,413.302185 504.155243,417.085236 509.354462,420.669250 
z"/>
<path fill="#000000" opacity="1.000000" stroke="none" 
	d="
M924.599854,425.939026 
	C920.158936,426.845062 918.226257,426.020050 919.447083,421.173615 
	C921.188843,414.258881 922.405579,407.203339 923.624817,400.169495 
	C924.158875,397.088104 925.689087,395.669434 928.696228,396.119110 
	C932.078308,396.624786 931.141724,398.994263 930.603882,401.112427 
	C928.530579,409.278198 928.035217,417.803406 924.599854,425.939026 
z"/>
<path fill="#000000" opacity="1.000000" stroke="none" 
	d="
M740.972229,610.787109 
	C740.963135,606.340027 740.972778,602.361267 740.956726,598.382568 
	C740.945251,595.533020 742.344604,594.091125 745.188538,594.042725 
	C746.182861,594.025818 747.189575,593.903442 748.169250,594.015625 
	C752.039978,594.459290 756.362061,593.920471 758.524841,598.390076 
	C760.678589,602.840759 757.523926,605.465149 754.896179,608.014587 
	C755.914490,611.367798 758.853699,613.329651 759.449768,616.778931 
	C756.176758,619.568359 754.652344,616.972839 752.948792,614.713745 
	C751.324219,612.559326 750.644592,609.546143 747.770203,608.483826 
	C745.535217,609.879150 746.507996,611.899292 746.287109,613.579590 
	C746.057922,615.322937 746.581238,617.617249 743.865784,617.634583 
	C741.422607,617.650208 741.138000,615.657715 741.045898,613.741394 
	C741.006165,612.913574 741.000916,612.084167 740.972229,610.787109 
M750.944031,598.428772 
	C749.088989,598.502014 746.713623,597.578674 746.365417,600.653015 
	C746.208740,602.036194 746.438293,603.433655 748.126221,603.704407 
	C749.909546,603.990540 751.925293,604.306213 753.125977,602.557251 
	C754.327026,600.807556 753.440796,599.457153 750.944031,598.428772 
z"/>
</svg>