<?xml version="1.0" encoding="utf-8"?>
<!-- Generator: Adobe Illustrator 23.1.0, SVG Export Plug-In . SVG Version: 6.00 Build 0)  -->
<svg version="1.1" id="Layer_1" xmlns="http://www.w3.org/2000/svg" xmlns:xlink="http://www.w3.org/1999/xlink" x="0px" y="0px"
	 viewBox="0 0 486 72" style="enable-background:new 0 0 486 72;" xml:space="preserve">
<style type="text/css">
	.st0{fill:#D62128;}
	.st1{fill:#808184;}
</style>
<g>
	<g>
		<path class="st0" d="M212,17.9L193,18l-25.7,47.5l16.3,0l4.3-8.4l29.5,0l4.5,8.4l16.2,0L212,17.9z M193.3,46.8l9.2-17.9l9.5,17.8
			L193.3,46.8z"/>
		<path class="st0" d="M243.8,17.9l0,30.6c0,11.8,6.1,17.4,19.5,17.4l10.5,0l10.4,0c13.4,0,19.5-5.7,19.5-17.4l0-30.6l-14.6,0
			l0,27.4c0,6-2.2,8.4-8.1,8.4l-14.4,0c-6,0-8.1-2.3-8.1-8.4l0-27.4L243.8,17.9z"/>
		<path class="st0" d="M376.6,34.3c0-11.7-5.1-16.5-19.7-16.5l-44,0l0,47.5l44,0c14.6,0,19.7-4.8,19.7-16.5L376.6,34.3z M353.4,53.1
			l-25.9,0l0-23.5l25.9,0c6.2,0,8.7,1.8,8.7,8.5l0,6.4C362.1,51.3,359.7,53.1,353.4,53.1z"/>
		<rect x="385.9" y="17.8" class="st0" width="14.5" height="47.5"/>
		<path class="st0" d="M474.6,34.4c0-13.9-7.8-17.2-20.9-17.2l-11.8,0l-11.6,0c-13.1,0-20.9,3.3-20.9,17.2l0,14.2
			c0,13.9,7.8,17.2,20.9,17.2l11.7,0l11.7,0c13.1,0,20.9-3.3,20.9-17.2L474.6,34.4z M451.4,53.5l-18.6,0c-6.9,0-8.3-2.6-8.3-9.5
			l0-5.1c0-5.9,1.4-9.5,9.1-9.5l17.1,0c7.7,0,9.1,3.6,9.1,9.5l0,5.1C459.7,50.9,458.3,53.5,451.4,53.5z"/>
		<path class="st0" d="M65.8,70.6h18.4h29.6h0c19.4-0.8,34.5-13.3,34.5-28.5c0-14.9-14.6-27.4-33.5-28.7H95.1l3.9,7.7h10.8
			c13.7,1.5,24.1,10.6,24.1,21c0,9.6-8.6,18.2-20.9,20.6H85.8l10.1-20.3l-8-15.9L65.8,70.6z"/>
		<path class="st0" d="M3.1,41.7c0,14.8,14.5,27.5,33.2,28.9h21.2l26.7-53.1l-8.1-16L45.7,62.7h-4c-13.7-1.5-24.1-10.6-24.1-21
			c0-9.6,8.6-18.2,20.8-20.6h14.1l3.9-7.7H37.7C18.3,14.2,3.1,26.6,3.1,41.7z"/>
	</g>
	<g>
		<path class="st1" d="M478.8,57.6c0.7,0,1.4,0.2,2,0.5c0.7,0.4,1.2,0.9,1.5,1.5c0.4,0.7,0.6,1.4,0.6,2.1c0,0.7-0.2,1.4-0.5,2
			c-0.4,0.7-0.9,1.2-1.5,1.5c-0.7,0.4-1.3,0.5-2.1,0.5c-0.7,0-1.4-0.2-2.1-0.5c-0.7-0.4-1.2-0.9-1.5-1.5c-0.4-0.7-0.5-1.3-0.5-2
			c0-0.7,0.2-1.4,0.6-2.1c0.4-0.7,0.9-1.2,1.5-1.5C477.4,57.8,478.1,57.6,478.8,57.6z M478.8,58.3c-0.6,0-1.1,0.1-1.7,0.4
			c-0.5,0.3-1,0.7-1.3,1.3c-0.3,0.6-0.5,1.1-0.5,1.7c0,0.6,0.2,1.2,0.5,1.7c0.3,0.5,0.7,1,1.3,1.3c0.5,0.3,1.1,0.5,1.7,0.5
			s1.2-0.2,1.7-0.5c0.5-0.3,1-0.7,1.3-1.3c0.3-0.5,0.5-1.1,0.5-1.7c0-0.6-0.2-1.2-0.5-1.7c-0.3-0.6-0.7-1-1.3-1.3
			C479.9,58.5,479.3,58.3,478.8,58.3z M476.9,64.1v-4.4h1.5c0.5,0,0.9,0,1.1,0.1c0.2,0.1,0.4,0.2,0.6,0.4c0.1,0.2,0.2,0.4,0.2,0.7
			c0,0.3-0.1,0.6-0.3,0.8c-0.2,0.2-0.5,0.4-0.9,0.4c0.2,0.1,0.3,0.1,0.4,0.2c0.2,0.2,0.4,0.5,0.7,0.9l0.5,0.9h-0.9l-0.4-0.7
			c-0.3-0.6-0.6-0.9-0.7-1c-0.1-0.1-0.3-0.2-0.6-0.2h-0.4v1.9H476.9z M477.7,61.6h0.9c0.4,0,0.7-0.1,0.8-0.2
			c0.2-0.1,0.2-0.3,0.2-0.5c0-0.1,0-0.2-0.1-0.4c-0.1-0.1-0.2-0.2-0.3-0.2c-0.1-0.1-0.4-0.1-0.7-0.1h-0.8V61.6z"/>
	</g>
</g>
</svg>
