<?xml version="1.0" encoding="utf-8"?>
<!-- Generator: Adobe Illustrator 26.0.2, SVG Export Plug-In . SVG Version: 6.00 Build 0)  -->
<svg version="1.1" id="Ebene_1" xmlns="http://www.w3.org/2000/svg" xmlns:xlink="http://www.w3.org/1999/xlink" x="0px" y="0px"
	 width="300px" height="40.667px" viewBox="0 0 300 40.667" enable-background="new 0 0 300 40.667" xml:space="preserve">
<g>
	<defs>
		<rect id="SVGID_1_" x="5" y="2.857" width="290.569" height="35.928"/>
	</defs>
	<clipPath id="SVGID_00000131351661575320261180000012913916624438397358_">
		<use xlink:href="#SVGID_1_"  overflow="visible"/>
	</clipPath>
	<path clip-path="url(#SVGID_00000131351661575320261180000012913916624438397358_)" fill="#1E2121" d="M147.309,27.372h-12.357
		l-3.061-4.12H108.35l-3.232,4.12H92.845l18.908-24.228h16.849L147.309,27.372z M211.871,17.789v3.833h29.12v5.749h-39.79V3.143
		h39.79v5.636h-29.12v3.575h27.404v5.435H211.871z M185.698,10.295c-0.477-0.419-1.345-0.706-2.603-0.858
		c-1.05-0.115-3.27-0.172-6.666-0.172h-15.074v12.014h15.104c3.051,0,5.12-0.056,6.206-0.172c1.354-0.152,2.308-0.371,2.861-0.658
		c0.61-0.363,1.021-0.906,1.23-1.631c0.267-0.648,0.4-1.783,0.4-3.404c0-1.563-0.124-2.689-0.373-3.376
		C186.67,11.277,186.307,10.695,185.698,10.295 M185.354,3.257c1.507,0.058,2.983,0.191,4.434,0.401
		c3.547,0.458,5.883,1.802,7.008,4.034c0.344,0.724,0.61,1.649,0.801,2.774c0.152,0.801,0.229,2.288,0.229,4.462
		c0,2.155-0.094,3.805-0.287,4.95c-0.152,1.009-0.447,2.002-0.886,2.974c-1.067,2.155-3.279,3.461-6.636,3.919
		c-1.373,0.248-3.004,0.448-4.892,0.6h-34.441V3.143h25.744C179.671,3.143,182.646,3.181,185.354,3.257 M295.196,4.802
		c0.096,0.306,0.182,0.725,0.259,1.259c0.076,0.686,0.114,1.563,0.114,2.632c0,1.334-0.056,2.345-0.171,3.032
		c-0.133,0.686-0.354,1.192-0.658,1.516c-0.324,0.343-0.849,0.581-1.573,0.714c-0.744,0.115-1.946,0.172-3.605,0.172
		c-0.802,0-1.697-0.01-2.69-0.029c-0.99-0.038-1.649-0.066-1.973-0.085c-0.553-0.058-0.983-0.143-1.287-0.259
		c-0.305-0.133-0.582-0.333-0.829-0.6c-0.325-0.324-0.544-0.801-0.658-1.43c-0.115-0.61-0.173-1.649-0.173-3.118
		c0-1.736,0.124-2.975,0.373-3.719c0.286-0.858,0.934-1.363,1.945-1.516c0.953-0.153,2.556-0.229,4.805-0.229
		c1.869,0,3.185,0.058,3.948,0.172c0.763,0.134,1.316,0.372,1.659,0.715C294.91,4.24,295.082,4.497,295.196,4.802 M283.412,6.032
		c-0.096,0.496-0.143,1.325-0.143,2.488c0,1.259,0.038,2.145,0.114,2.661c0.077,0.514,0.211,0.887,0.401,1.116
		c0.192,0.171,0.409,0.295,0.658,0.372c0.249,0.076,0.649,0.133,1.202,0.171c0.209,0.019,1.278,0.048,3.204,0.086
		c1.736-0.02,2.775-0.038,3.119-0.057c0.343-0.019,0.658-0.067,0.944-0.143c0.285-0.076,0.532-0.21,0.742-0.401
		c0.192-0.209,0.326-0.457,0.401-0.743c0.134-0.61,0.201-1.621,0.201-3.033c0-1.43-0.058-2.412-0.172-2.947
		c-0.076-0.285-0.22-0.523-0.431-0.714c-0.227-0.191-0.504-0.324-0.828-0.4c-0.363-0.057-0.735-0.095-1.116-0.114
		c-0.381-0.02-1.526-0.03-3.432-0.03c-1.489,0-2.527,0.038-3.118,0.115c-0.572,0.076-0.992,0.238-1.259,0.486
		C283.649,5.156,283.488,5.518,283.412,6.032 M292.308,5.661c0.266,0.152,0.447,0.362,0.544,0.628
		c0.113,0.267,0.171,0.668,0.171,1.202c0,0.687-0.086,1.145-0.257,1.374c-0.152,0.248-0.467,0.4-0.943,0.457
		c0.515,0.076,0.829,0.211,0.943,0.401c0.114,0.21,0.171,0.696,0.171,1.459v0.658h-2.173V11.41c0-0.552-0.058-0.887-0.173-1.001
		c-0.057-0.057-0.143-0.095-0.257-0.114c-0.115-0.019-0.392-0.029-0.831-0.029h-2.803v1.574h-2.174V5.403h4.977
		c1.182,0,1.889,0.01,2.118,0.028C291.851,5.451,292.078,5.527,292.308,5.661 M289.475,7.149h-2.774v1.372h2.774
		c0.687-0.019,1.069-0.048,1.145-0.086c0.133-0.076,0.2-0.286,0.2-0.629c0-0.324-0.056-0.515-0.171-0.572
		C290.553,7.176,290.162,7.149,289.475,7.149 M121.193,8.779h-2.145l-6.836,9.154h15.876L121.193,8.779z M89.413,21.279v6.093
		H55.688V3.143h11.499v18.136H89.413z M6.286,7.033c1.107-1.926,3.291-3.089,6.552-3.49c3.775-0.457,9.402-0.686,16.877-0.686
		c4.538,0,8.075,0.095,10.612,0.286c2.575,0.133,4.73,0.363,6.465,0.687c2.747,0.553,4.405,1.802,4.978,3.747
		c0.267,0.954,0.4,2.279,0.4,3.976H41.328c-0.02-0.667-0.095-1.115-0.229-1.344c-0.076-0.191-0.286-0.381-0.63-0.572
		c-0.61-0.325-1.878-0.525-3.804-0.601c-4.787-0.076-7.438-0.115-7.954-0.115c-3.451,0-6.121,0.076-8.008,0.23
		c-1.622,0.133-2.748,0.353-3.376,0.658c-0.611,0.362-1.011,0.906-1.203,1.63c-0.171,0.687-0.257,1.955-0.257,3.804
		c0,2.099,0.086,3.529,0.257,4.292c0.192,0.82,0.592,1.401,1.203,1.744c0.628,0.305,1.43,0.487,2.402,0.544
		c0.401,0.038,3.356,0.114,8.867,0.228l9.067-0.114c0.935-0.038,1.755-0.143,2.461-0.315c0.592-0.229,0.982-0.486,1.174-0.773
		c0.19-0.343,0.285-0.877,0.285-1.601l0.086-0.658h-14.36V13.67h24.857l0.115,0.601c0,3.738-0.143,6.33-0.429,7.78
		c-0.42,2.766-2.765,4.472-7.038,5.12c-1.448,0.172-3.517,0.353-6.206,0.544c-2.079,0.076-5.702,0.115-10.871,0.115
		c-6.16,0-10.507-0.115-13.044-0.344c-2.48-0.209-4.472-0.667-5.979-1.373c-0.935-0.457-1.707-1.049-2.316-1.774
		c-0.495-0.629-0.839-1.573-1.03-2.831C5.124,20.574,5,18.399,5,14.986c0-2.307,0.104-3.966,0.315-4.977
		C5.409,8.903,5.735,7.911,6.286,7.033 M283.297,14.728h0.142c0.057,0.038,0.115,0.067,0.172,0.086
		c0.304,0.114,0.734,0.2,1.287,0.257c0.324,0.019,0.983,0.046,1.973,0.086c0.993,0.02,1.888,0.028,2.69,0.028
		c1.658,0,2.86-0.057,3.605-0.171c0.362-0.076,0.686-0.172,0.972-0.286h0.057v12.643h-18.994L256.323,9.265h-1.03v18.107h-10.869
		V3.143h19.079l18.679,18.136h1.116V14.728z"/>
	<path clip-path="url(#SVGID_00000131351661575320261180000012913916624438397358_)" fill="#C03335" d="M172.254,30.346h10.011
		v2.089h-3.691v6.207h-2.631v-6.207h-3.689V30.346z M167.475,38.642h-4.405l-4.347-6.207h-0.258v6.207h-2.517v-8.296h4.434
		l4.347,6.208h0.229v-6.208h2.517V38.642z M148.454,32.292l-1.573,3.09h3.689l-1.602-3.09H148.454z M145.279,38.642h-2.89
		l4.377-8.296h3.918l4.319,8.296h-2.86l-0.716-1.431h-5.463L145.279,38.642z M139.043,38.642v-6.207h-0.429l-3.118,6.207h-2.089
		l-3.118-6.207h-0.428v6.207h-2.432v-8.296h4.577l2.431,5.377l2.489-5.377h4.548v8.296H139.043z M220.995,32.435v6.207h-2.516
		v-8.296h4.434l4.347,6.208h0.257v-6.208h2.489v8.296h-4.375l-4.378-6.207H220.995z M214.103,30.346h2.659v8.296h-2.659V35.61
		h-5.664v3.032h-2.661v-8.296h2.661v2.946h5.664V30.346z M203.175,30.604c0.381,0.172,0.648,0.421,0.8,0.744
		c0.153,0.362,0.229,0.886,0.229,1.574c0,0.018-0.009,0.143-0.029,0.371h-2.517c-0.019-0.247-0.038-0.419-0.056-0.514
		c-0.02-0.076-0.068-0.143-0.143-0.201c-0.096-0.095-0.334-0.162-0.716-0.2c-0.4-0.019-0.991-0.028-1.774-0.028
		c-0.782,0-1.325,0.01-1.629,0.028c-0.287,0.038-0.495,0.114-0.629,0.229c-0.153,0.114-0.258,0.304-0.315,0.572
		c-0.059,0.286-0.087,0.744-0.087,1.373c0,0.609,0.028,1.048,0.087,1.316c0.038,0.267,0.132,0.457,0.285,0.571
		c0.154,0.097,0.372,0.163,0.659,0.202c0.324,0.038,0.877,0.056,1.658,0.056c0.953,0,1.593-0.01,1.918-0.028
		c0.304-0.038,0.515-0.114,0.628-0.23c0.152-0.152,0.23-0.485,0.23-1h2.545c0.019,0.401,0.028,0.658,0.028,0.772
		c0,0.648-0.095,1.154-0.285,1.516c-0.21,0.42-0.62,0.696-1.23,0.829c-0.611,0.153-1.659,0.23-3.147,0.23
		c-1.582,0-2.708-0.03-3.375-0.086c-0.667-0.058-1.164-0.182-1.488-0.372c-0.305-0.153-0.533-0.362-0.686-0.63
		c-0.152-0.267-0.258-0.628-0.315-1.087c-0.037-0.381-0.057-1.059-0.057-2.031c0-0.972,0.02-1.669,0.057-2.088
		c0.038-0.419,0.114-0.752,0.23-1.001c0.228-0.514,0.696-0.849,1.4-1.001c0.706-0.152,2.118-0.229,4.234-0.229
		c1.069,0,1.849,0.019,2.346,0.058C202.507,30.376,202.888,30.471,203.175,30.604 M192.533,32.292h-6.693v1.202h6.35v1.83h-6.35
		v1.344h6.751v1.974h-9.183v-8.296h9.125V32.292z M269.281,33.15c-0.038,0.267-0.057,0.716-0.057,1.344
		c0,0.686,0.018,1.173,0.057,1.459c0.056,0.287,0.152,0.485,0.286,0.601c0.134,0.095,0.305,0.162,0.516,0.2
		c0.228,0.019,0.925,0.038,2.087,0.057c1.125-0.019,1.822-0.028,2.089-0.028c0.247-0.019,0.438-0.058,0.571-0.115
		c0.134-0.057,0.229-0.142,0.287-0.258c0.038-0.132,0.057-0.314,0.057-0.543c0-0.038,0.009-0.124,0.028-0.257h-3.345v-1.688h5.777
		v0.229c0,1.182-0.027,2.078-0.086,2.689c-0.096,0.934-0.639,1.506-1.63,1.715c-0.401,0.095-0.878,0.153-1.431,0.173
		c-0.551,0.038-1.391,0.057-2.516,0.057c-1.431,0-2.432-0.038-3.004-0.115c-0.591-0.076-1.058-0.229-1.402-0.458
		c-0.229-0.171-0.41-0.381-0.543-0.629c-0.115-0.248-0.2-0.572-0.258-0.973c-0.056-0.381-0.086-1.125-0.086-2.232
		c0-0.761,0.029-1.325,0.086-1.687c0.038-0.401,0.115-0.753,0.23-1.058c0.247-0.63,0.752-1.011,1.516-1.144
		c0.838-0.152,2.135-0.229,3.89-0.229c1.049,0,1.879,0.019,2.488,0.058c0.591,0.057,1.087,0.152,1.487,0.285
		c0.629,0.191,1.011,0.611,1.144,1.259c0.058,0.323,0.087,0.772,0.087,1.344h-2.489c0-0.229-0.009-0.381-0.028-0.458
		c-0.039-0.076-0.096-0.142-0.172-0.2c-0.134-0.095-0.43-0.152-0.887-0.171c-0.42-0.019-1.031-0.028-1.831-0.028
		c-0.878,0-1.507,0.019-1.888,0.057c-0.362,0.038-0.61,0.114-0.744,0.229C269.433,32.749,269.337,32.922,269.281,33.15
		 M261.844,32.464c-0.305-0.058-1.04-0.086-2.203-0.086c-1.336,0-2.137,0.038-2.404,0.114c-0.322,0.076-0.534,0.257-0.629,0.544
		c-0.095,0.287-0.143,0.859-0.143,1.717c0,0.495,0.029,0.858,0.085,1.087c0.097,0.439,0.403,0.686,0.916,0.742
		c0.382,0.058,1.107,0.086,2.175,0.086c1.011,0,1.686-0.019,2.031-0.057c0.304-0.038,0.544-0.124,0.715-0.257
		c0.152-0.114,0.248-0.286,0.285-0.514c0.058-0.229,0.086-0.592,0.086-1.087c0-0.611-0.019-1.059-0.057-1.346
		c-0.038-0.266-0.114-0.476-0.23-0.628C262.338,32.607,262.129,32.502,261.844,32.464 M265.076,31.748
		c0.152,0.554,0.228,1.479,0.228,2.775c0,1.297-0.076,2.212-0.228,2.746c-0.229,0.801-0.82,1.26-1.774,1.373
		c-0.687,0.095-1.906,0.144-3.66,0.144c-1.793,0-3.024-0.048-3.692-0.144c-0.971-0.114-1.563-0.572-1.773-1.373
		c-0.152-0.534-0.229-1.469-0.229-2.803c0-1.258,0.076-2.163,0.229-2.718c0.21-0.782,0.802-1.239,1.773-1.372
		c0.668-0.076,1.898-0.115,3.692-0.115c1.754,0,2.973,0.04,3.66,0.115C264.256,30.509,264.847,30.966,265.076,31.748
		 M252.947,38.642h-8.495v-8.296h2.632v6.208h5.863V38.642z M242.907,34.523c0,1.297-0.076,2.212-0.229,2.746
		c-0.228,0.801-0.82,1.26-1.773,1.373c-0.687,0.095-1.917,0.144-3.69,0.144c-1.773,0-3.003-0.048-3.69-0.144
		c-0.953-0.114-1.545-0.572-1.773-1.373c-0.152-0.534-0.229-1.469-0.229-2.803c0-1.258,0.077-2.163,0.229-2.718
		c0.228-0.782,0.821-1.239,1.773-1.372c0.687-0.076,1.917-0.115,3.69-0.115c1.773,0,3.003,0.04,3.69,0.115
		c0.953,0.133,1.545,0.59,1.773,1.372C242.83,32.302,242.907,33.227,242.907,34.523 M239.418,32.464
		c-0.287-0.058-1.02-0.086-2.203-0.086c-1.316,0-2.108,0.038-2.374,0.114c-0.324,0.076-0.534,0.257-0.629,0.544
		c-0.096,0.287-0.144,0.859-0.144,1.717c0,0.495,0.03,0.858,0.086,1.087c0.096,0.439,0.401,0.686,0.916,0.742
		c0.362,0.058,1.076,0.086,2.145,0.086c1.029,0,1.707-0.019,2.03-0.057c0.324-0.038,0.572-0.124,0.744-0.257
		c0.153-0.114,0.249-0.286,0.287-0.514c0.058-0.229,0.085-0.592,0.085-1.087c0-0.611-0.018-1.059-0.057-1.346
		c-0.039-0.266-0.114-0.476-0.23-0.628C239.941,32.607,239.722,32.502,239.418,32.464 M285.557,35.696v2.946h-2.602v-2.946
		l-4.749-5.35h3.289l2.719,3.319l2.602-3.319h3.261L285.557,35.696z M125.199,30.69c0.305,0.191,0.514,0.449,0.629,0.772
		c0.133,0.325,0.2,0.859,0.2,1.603c0,0.59-0.039,1.029-0.114,1.315c-0.076,0.287-0.22,0.506-0.429,0.658
		c-0.229,0.191-0.562,0.324-1.002,0.401c0.515,0.037,0.887,0.19,1.116,0.457c0.134,0.152,0.219,0.344,0.257,0.572
		c0.038,0.229,0.058,0.696,0.058,1.401v0.773h-2.46v-0.429c0-0.477-0.02-0.81-0.056-1.001c-0.039-0.19-0.105-0.333-0.203-0.428
		c-0.095-0.096-0.228-0.162-0.399-0.201c-0.152-0.019-0.487-0.028-1.001-0.028h-3.575v2.088h-2.518v-8.296h6.093
		c1.43,0,2.288,0.019,2.574,0.058C124.655,30.423,124.93,30.519,125.199,30.69 M123.424,34.038c0.038-0.134,0.057-0.345,0.057-0.631
		c0-0.247-0.019-0.437-0.057-0.572c-0.058-0.152-0.152-0.257-0.286-0.314c-0.077-0.038-0.181-0.057-0.316-0.057
		c-0.113-0.019-0.467-0.029-1.058-0.029h-3.546v2.03h3.546c0.629,0,1.001-0.008,1.116-0.028c0.114-0.019,0.219-0.047,0.313-0.085
		C123.31,34.275,123.386,34.171,123.424,34.038 M114.271,32.292h-6.694v1.202h6.35v1.83h-6.35v1.344h6.751v1.974h-9.182v-8.296
		h9.125V32.292z M103.601,34.152c0,1.182-0.028,2.078-0.086,2.689c-0.096,0.934-0.648,1.506-1.659,1.715
		c-0.401,0.095-0.878,0.153-1.431,0.173c-0.534,0.038-1.364,0.057-2.488,0.057c-1.431,0-2.442-0.038-3.032-0.115
		c-0.574-0.076-1.041-0.229-1.402-0.458c-0.229-0.171-0.411-0.381-0.544-0.629c-0.114-0.248-0.199-0.572-0.257-0.973
		c-0.058-0.381-0.086-1.125-0.086-2.232c0-0.761,0.028-1.325,0.086-1.687c0.037-0.401,0.114-0.753,0.229-1.058
		c0.246-0.63,0.752-1.011,1.515-1.144c0.859-0.152,2.156-0.229,3.892-0.229c1.048,0,1.878,0.019,2.488,0.058
		c0.61,0.057,1.106,0.152,1.487,0.285c0.648,0.191,1.039,0.611,1.173,1.259c0.057,0.323,0.086,0.772,0.086,1.344h-2.518
		c0-0.229-0.009-0.381-0.028-0.458c-0.038-0.076-0.095-0.142-0.172-0.2c-0.133-0.095-0.429-0.152-0.887-0.171
		c-0.419-0.019-1.029-0.028-1.83-0.028c-0.879,0-1.507,0.019-1.888,0.057c-0.343,0.038-0.592,0.114-0.744,0.229
		c-0.134,0.114-0.229,0.287-0.287,0.515c-0.037,0.267-0.056,0.716-0.056,1.344c0,0.686,0.019,1.173,0.056,1.459
		c0.058,0.287,0.153,0.485,0.287,0.601c0.152,0.095,0.324,0.162,0.514,0.2c0.229,0.019,0.925,0.038,2.089,0.057
		c1.144-0.019,1.839-0.028,2.088-0.028c0.248-0.019,0.439-0.058,0.572-0.115c0.133-0.057,0.229-0.142,0.286-0.258
		c0.039-0.132,0.058-0.314,0.058-0.543c0-0.038,0.009-0.124,0.028-0.257h-3.318v-1.688h5.778V34.152"/>
</g>
</svg>
