<svg version="1.1" id="Layer_1" xmlns="http://www.w3.org/2000/svg" xmlns:xlink="http://www.w3.org/1999/xlink" x="0px" y="0px"
	 width="100%" viewBox="0 0 318 159" enable-background="new 0 0 318 159" xml:space="preserve">
<path fill="#FFFEFE" opacity="1.000000" stroke="none" 
	d="
M293.000000,160.000000 
	C195.333359,160.000000 98.166710,160.000000 1.000052,160.000000 
	C1.000035,107.000038 1.000035,54.000072 1.000017,1.000081 
	C106.999939,1.000054 212.999878,1.000054 318.999878,1.000027 
	C318.999908,53.999928 318.999908,106.999855 318.999939,159.999893 
	C310.500000,160.000000 302.000000,160.000000 293.000000,160.000000 
M165.982803,70.876930 
	C171.314560,71.231033 176.646301,71.585136 182.663116,72.469238 
	C182.663116,79.526268 182.663116,86.583305 182.663116,93.836739 
	C185.144379,93.836739 186.583466,93.836739 188.700302,93.836739 
	C188.700302,86.617027 188.700302,79.595490 188.700302,72.121857 
	C193.973099,72.121857 198.581146,72.098442 203.188782,72.130524 
	C206.011627,72.150185 207.738861,71.243561 206.614548,67.217049 
	C193.572296,67.123001 180.530060,67.017548 167.487656,66.980545 
	C167.012756,66.979195 166.535965,67.649811 165.902283,68.665482 
	C165.950592,69.111549 165.998901,69.557610 165.982803,70.876930 
M303.030243,91.104660 
	C302.979401,85.388939 302.928558,79.673218 302.985779,73.233833 
	C302.949768,72.504929 302.913727,71.776024 303.023621,70.358879 
	C302.974762,69.894989 302.925873,69.431099 302.884949,68.443703 
	C302.595917,68.315735 302.306885,68.187759 301.235657,67.897614 
	C299.509735,67.969185 297.468536,67.194969 298.323975,70.629684 
	C298.826080,72.645775 297.770294,75.049858 297.399841,77.376129 
	C287.194183,77.376129 277.196625,77.376129 267.068054,77.376129 
	C266.905121,73.660301 266.763123,70.421822 266.608307,66.890984 
	C264.607208,66.993584 263.183197,67.066589 261.648560,67.145271 
	C261.648560,76.205238 261.648560,84.919388 261.648560,93.794495 
	C263.452087,93.794495 264.880402,93.794495 267.035858,93.794495 
	C267.035858,90.108696 267.035858,86.657738 267.966675,83.140854 
	C277.959015,83.238403 287.951355,83.335953 297.899200,84.121475 
	C297.899200,86.948120 297.899200,89.774773 297.899200,92.885002 
	C299.520294,92.885002 300.775635,92.885002 302.537109,92.906822 
	C302.650452,92.615906 302.763824,92.324989 303.030243,91.104660 
M46.635990,99.772804 
	C51.538639,94.325256 56.562630,88.978241 61.234188,83.339249 
	C62.094131,82.301216 62.279045,79.462318 61.494297,78.505699 
	C56.545345,72.472885 51.234871,66.736641 45.757881,60.216026 
	C45.140110,59.894894 44.522343,59.573757 43.904572,59.252625 
	C43.870495,60.175407 43.836418,61.098186 43.535065,62.923836 
	C43.628815,74.942657 43.722561,86.961487 43.583988,99.704903 
	C43.671082,100.436722 43.758179,101.168533 43.936371,102.665794 
	C44.938107,101.425911 45.485916,100.747871 46.635990,99.772804 
M20.129253,99.709427 
	C25.798727,93.437660 31.468203,87.165901 37.301136,80.713318 
	C31.246557,73.982895 25.426064,67.512695 19.293419,60.465591 
	C18.753950,59.791092 18.214479,59.116596 17.116880,57.744270 
	C17.116880,59.464386 17.116880,60.322140 16.955959,62.037960 
	C17.009640,74.630478 17.063320,87.223000 16.998758,100.445320 
	C17.242533,100.907043 17.486307,101.368774 17.730082,101.830498 
	C18.350664,101.207001 18.971247,100.583504 20.129253,99.709427 
M117.897881,74.936462 
	C117.893822,77.764297 117.742722,80.601555 117.923141,83.417572 
	C118.145607,86.889938 118.643997,90.344643 119.682457,93.982002 
	C120.131142,93.925720 120.579819,93.869431 121.856071,93.900894 
	C122.247124,90.934631 122.638176,87.968361 123.938187,84.758224 
	C133.857605,84.758224 143.777023,84.758224 154.185333,84.758224 
	C154.185333,88.144783 154.185333,90.903442 154.185333,93.810272 
	C156.127441,93.810272 157.569000,93.810272 159.421112,93.810272 
	C159.421112,86.479179 159.560059,79.357330 159.365829,72.244576 
	C159.259659,68.356773 156.715439,66.839493 152.963135,66.863197 
	C143.464737,66.923218 133.965225,66.830971 124.467155,66.913673 
	C119.235840,66.959221 118.062851,68.363243 117.897881,74.936462 
M70.110664,93.073174 
	C71.550255,93.436447 72.989853,93.799713 75.155212,94.346123 
	C75.155212,89.770142 75.153969,85.984787 75.155457,82.199432 
	C75.159828,71.089050 75.160362,71.088074 86.202347,72.372955 
	C86.341743,72.389175 86.461746,72.572075 87.309723,73.262665 
	C87.309723,79.682076 87.309723,86.706482 87.309723,94.026901 
	C89.474052,93.928238 90.906265,93.862946 93.030853,93.766090 
	C93.030853,86.473473 93.030853,79.438049 93.030853,72.144608 
	C96.048653,72.144608 98.392784,72.386002 100.668266,72.093452 
	C105.157745,71.516273 106.518990,73.356972 106.234940,77.707825 
	C105.891792,82.964005 106.153641,88.259682 106.153641,93.692581 
	C108.204346,93.692581 109.740067,93.692581 111.683220,93.692581 
	C111.683220,86.366508 111.836693,79.398216 111.621353,72.441345 
	C111.505997,68.714897 109.224579,66.849998 105.370827,66.869629 
	C95.718079,66.918808 86.064766,66.886131 76.411804,66.850578 
	C71.793480,66.833557 69.815346,69.113388 69.915977,73.679253 
	C70.051651,79.834442 69.965874,85.994514 70.110664,93.073174 
M213.739120,74.267143 
	C213.719910,78.259933 213.711609,82.252823 213.678986,86.245499 
	C213.627274,92.573143 214.934265,93.993446 221.101822,94.057404 
	C226.425568,94.112617 231.750259,94.078262 237.074524,94.080170 
	C243.005157,94.082298 248.935791,94.080666 255.244858,94.080666 
	C255.037354,91.907570 254.904404,90.515282 254.745239,88.848495 
	C246.234528,88.848495 238.102081,88.848434 229.969620,88.848511 
	C218.881485,88.848610 219.130081,88.841644 218.818039,77.780022 
	C218.682632,72.979530 220.385666,71.898918 224.818466,72.028755 
	C234.747879,72.319603 244.691681,72.119797 254.868530,72.119797 
	C254.868530,70.178787 254.868530,68.786758 254.868530,66.884705 
	C243.511993,66.884705 232.403259,67.026962 221.301117,66.818840 
	C216.459000,66.728065 213.614868,68.202560 213.739120,74.267143 
z"/>
<path fill="#E58347" opacity="1.000000" stroke="none" 
	d="
M70.042900,92.612839 
	C69.965874,85.994514 70.051651,79.834442 69.915977,73.679253 
	C69.815346,69.113388 71.793480,66.833557 76.411804,66.850578 
	C86.064766,66.886131 95.718079,66.918808 105.370827,66.869629 
	C109.224579,66.849998 111.505997,68.714897 111.621353,72.441345 
	C111.836693,79.398216 111.683220,86.366508 111.683220,93.692581 
	C109.740067,93.692581 108.204346,93.692581 106.153641,93.692581 
	C106.153641,88.259682 105.891792,82.964005 106.234940,77.707825 
	C106.518990,73.356972 105.157745,71.516273 100.668266,72.093452 
	C98.392784,72.386002 96.048653,72.144608 93.030853,72.144608 
	C93.030853,79.438049 93.030853,86.473473 93.030853,93.766090 
	C90.906265,93.862946 89.474052,93.928238 87.309723,94.026901 
	C87.309723,86.706482 87.309723,79.682076 87.309723,73.262665 
	C86.461746,72.572075 86.341743,72.389175 86.202347,72.372955 
	C75.160362,71.088074 75.159828,71.089050 75.155457,82.199432 
	C75.153969,85.984787 75.155212,89.770142 75.155212,94.346123 
	C72.989853,93.799713 71.550255,93.436447 70.042900,92.612839 
z"/>
<path fill="#E77D3D" opacity="1.000000" stroke="none" 
	d="
M121.028503,93.813148 
	C120.579819,93.869431 120.131142,93.925720 119.344376,93.439941 
	C118.684212,86.602028 118.362122,80.306160 118.040031,74.010300 
	C118.062851,68.363243 119.235840,66.959221 124.467155,66.913673 
	C133.965225,66.830971 143.464737,66.923218 152.963135,66.863197 
	C156.715439,66.839493 159.259659,68.356773 159.365829,72.244576 
	C159.560059,79.357330 159.421112,86.479179 159.421112,93.810272 
	C157.569000,93.810272 156.127441,93.810272 154.185333,93.810272 
	C154.185333,90.903442 154.185333,88.144783 154.185333,84.758224 
	C143.777023,84.758224 133.857605,84.758224 123.194420,85.139702 
	C121.976601,88.285172 121.502556,91.049156 121.028503,93.813148 
M123.461105,80.312439 
	C131.631378,80.237350 139.801651,80.162262 148.836731,79.938042 
	C150.438690,79.841820 152.040649,79.745598 154.712631,79.585106 
	C152.735550,76.927856 156.489166,72.537109 151.393616,72.268471 
	C142.179535,71.782707 132.921494,72.130951 123.065750,72.130951 
	C123.065750,74.995934 123.065750,77.263916 123.461105,80.312439 
z"/>
<path fill="#E57D3D" opacity="1.000000" stroke="none" 
	d="
M213.746521,73.854965 
	C213.614868,68.202560 216.459000,66.728065 221.301117,66.818840 
	C232.403259,67.026962 243.511993,66.884705 254.868530,66.884705 
	C254.868530,68.786758 254.868530,70.178787 254.868530,72.119797 
	C244.691681,72.119797 234.747879,72.319603 224.818466,72.028755 
	C220.385666,71.898918 218.682632,72.979530 218.818039,77.780022 
	C219.130081,88.841644 218.881485,88.848610 229.969620,88.848511 
	C238.102081,88.848434 246.234528,88.848495 254.745239,88.848495 
	C254.904404,90.515282 255.037354,91.907570 255.244858,94.080666 
	C248.935791,94.080666 243.005157,94.082298 237.074524,94.080170 
	C231.750259,94.078262 226.425568,94.112617 221.101822,94.057404 
	C214.934265,93.993446 213.627274,92.573143 213.678986,86.245499 
	C213.711609,82.252823 213.719910,78.259933 213.746521,73.854965 
z"/>
<path fill="#3A3738" opacity="1.000000" stroke="none" 
	d="
M19.605568,61.042488 
	C25.426064,67.512695 31.246557,73.982895 37.301136,80.713318 
	C31.468203,87.165901 25.798727,93.437660 19.240606,99.802155 
	C17.940306,99.868423 17.528652,99.841972 17.117001,99.815521 
	C17.063320,87.223000 17.009640,74.630478 17.658478,61.571968 
	C18.775852,61.084816 19.190710,61.063652 19.605568,61.042488 
z"/>
<path fill="#3B3739" opacity="1.000000" stroke="none" 
	d="
M46.043816,60.902435 
	C51.234871,66.736641 56.545345,72.472885 61.494297,78.505699 
	C62.279045,79.462318 62.094131,82.301216 61.234188,83.339249 
	C56.562630,88.978241 51.538639,94.325256 46.144032,99.655891 
	C45.040154,99.352753 44.428230,99.166534 43.816307,98.980309 
	C43.722561,86.961487 43.628815,74.942657 44.002014,62.450226 
	C44.993912,61.618557 45.518864,61.260498 46.043816,60.902435 
z"/>
<path fill="#E88243" opacity="1.000000" stroke="none" 
	d="
M302.877747,73.957497 
	C302.928558,79.673218 302.979401,85.388939 302.763794,91.656113 
	C302.263245,92.379204 302.107788,92.605019 302.030975,92.885002 
	C300.775635,92.885002 299.520294,92.885002 297.899200,92.885002 
	C297.899200,89.774773 297.899200,86.948120 297.714844,83.392715 
	C287.717743,82.517349 277.905151,82.360474 268.091949,82.266212 
	C267.742950,82.262856 267.388031,82.879242 267.035858,83.206787 
	C267.035858,86.657738 267.035858,90.108696 267.035858,93.794495 
	C264.880402,93.794495 263.452087,93.794495 261.648560,93.794495 
	C261.648560,84.919388 261.648560,76.205238 261.648560,67.145271 
	C263.183197,67.066589 264.607208,66.993584 266.608307,66.890984 
	C266.763123,70.421822 266.905121,73.660301 267.068054,77.376129 
	C277.196625,77.376129 287.194183,77.376129 297.399841,77.376129 
	C297.770294,75.049858 298.826080,72.645775 298.323975,70.629684 
	C297.468536,67.194969 299.509735,67.969185 301.714386,68.177353 
	C302.357239,68.712685 302.585205,68.882721 302.877014,68.967209 
	C302.925873,69.431099 302.974762,69.894989 302.718994,70.883881 
	C302.568817,72.258423 302.723267,73.107964 302.877747,73.957497 
z"/>
<path fill="#E97E3D" opacity="1.000000" stroke="none" 
	d="
M206.987381,68.009132 
	C207.738861,71.243561 206.011627,72.150185 203.188782,72.130524 
	C198.581146,72.098442 193.973099,72.121857 188.700302,72.121857 
	C188.700302,79.595490 188.700302,86.617027 188.700302,93.836739 
	C186.583466,93.836739 185.144379,93.836739 182.663116,93.836739 
	C182.663116,86.583305 182.663116,79.526268 182.021667,71.920776 
	C176.269211,70.916100 171.158203,70.459885 166.047195,70.003677 
	C165.998901,69.557610 165.950592,69.111549 166.445343,68.334229 
	C180.321396,68.005028 193.654388,68.007080 206.987381,68.009132 
z"/>
<path fill="#DB7C3F" opacity="1.000000" stroke="none" 
	d="
M206.800964,67.613091 
	C193.654388,68.007080 180.321396,68.005028 166.524231,68.005119 
	C166.535965,67.649811 167.012756,66.979195 167.487656,66.980545 
	C180.530060,67.017548 193.572296,67.123001 206.800964,67.613091 
z"/>
<path fill="#DA7938" opacity="1.000000" stroke="none" 
	d="
M267.501282,83.173820 
	C267.388031,82.879242 267.742950,82.262856 268.091949,82.266212 
	C277.905151,82.360474 287.717743,82.517349 297.737061,83.048721 
	C287.951355,83.335953 277.959015,83.238403 267.501282,83.173820 
z"/>
<path fill="#D97B39" opacity="1.000000" stroke="none" 
	d="
M117.968956,74.473381 
	C118.362122,80.306160 118.684212,86.602028 119.014725,93.352432 
	C118.643997,90.344643 118.145607,86.889938 117.923141,83.417572 
	C117.742722,80.601555 117.893822,77.764297 117.968956,74.473381 
z"/>
<path fill="#DB7C3F" opacity="1.000000" stroke="none" 
	d="
M166.014999,70.440308 
	C171.158203,70.459885 176.269211,70.916100 181.679138,71.655777 
	C176.646301,71.585136 171.314560,71.231033 166.014999,70.440308 
z"/>
<path fill="#D97B39" opacity="1.000000" stroke="none" 
	d="
M121.442291,93.857025 
	C121.502556,91.049156 121.976601,88.285172 122.739937,85.261642 
	C122.638176,87.968361 122.247124,90.934631 121.442291,93.857025 
z"/>
<path fill="#2E2B2D" opacity="1.000000" stroke="none" 
	d="
M45.900848,60.559235 
	C45.518864,61.260498 44.993912,61.618557 44.135651,61.998795 
	C43.836418,61.098186 43.870495,60.175407 43.904572,59.252625 
	C44.522343,59.573757 45.140110,59.894894 45.900848,60.559235 
z"/>
<path fill="#2E2B2D" opacity="1.000000" stroke="none" 
	d="
M43.700150,99.342606 
	C44.428230,99.166534 45.040154,99.352753 45.842899,99.804398 
	C45.485916,100.747871 44.938107,101.425911 43.936371,102.665794 
	C43.758179,101.168533 43.671082,100.436722 43.700150,99.342606 
z"/>
<path fill="#231F21" opacity="1.000000" stroke="none" 
	d="
M19.449493,60.754040 
	C19.190710,61.063652 18.775852,61.084816 17.738937,61.142937 
	C17.116880,60.322140 17.116880,59.464386 17.116880,57.744270 
	C18.214479,59.116596 18.753950,59.791092 19.449493,60.754040 
z"/>
<path fill="#231F21" opacity="1.000000" stroke="none" 
	d="
M17.057878,100.130417 
	C17.528652,99.841972 17.940306,99.868423 18.971893,99.927444 
	C18.971247,100.583504 18.350664,101.207001 17.730082,101.830498 
	C17.486307,101.368774 17.242533,100.907043 17.057878,100.130417 
z"/>
<path fill="#E3742A" opacity="1.000000" stroke="none" 
	d="
M302.931763,73.595665 
	C302.723267,73.107964 302.568817,72.258423 302.646027,71.227997 
	C302.913727,71.776024 302.949768,72.504929 302.931763,73.595665 
z"/>
<path fill="#E3742A" opacity="1.000000" stroke="none" 
	d="
M302.284058,92.895912 
	C302.107788,92.605019 302.263245,92.379204 302.687256,92.120819 
	C302.763824,92.324989 302.650452,92.615906 302.284058,92.895912 
z"/>
<path fill="#E3742A" opacity="1.000000" stroke="none" 
	d="
M302.880981,68.705460 
	C302.585205,68.882721 302.357239,68.712685 302.105469,68.258438 
	C302.306885,68.187759 302.595917,68.315735 302.880981,68.705460 
z"/>
<path fill="#FDF6F1" opacity="1.000000" stroke="none" 
	d="
M123.065750,79.531891 
	C123.065750,77.263916 123.065750,74.995934 123.065750,72.130951 
	C132.921494,72.130951 142.179535,71.782707 151.393616,72.268471 
	C156.489166,72.537109 152.735550,76.927856 154.712631,79.585106 
	C152.040649,79.745598 150.438690,79.841820 147.943359,79.934296 
	C139.055252,79.797668 131.060501,79.664780 123.065750,79.531891 
z"/>
<path fill="#DA7836" opacity="1.000000" stroke="none" 
	d="
M123.263428,79.922165 
	C131.060501,79.664780 139.055252,79.797668 147.510956,80.008865 
	C139.801651,80.162262 131.631378,80.237350 123.263428,79.922165 
z"/>
</svg>