<svg version="1.1" id="Layer_1" xmlns="http://www.w3.org/2000/svg" xmlns:xlink="http://www.w3.org/1999/xlink" x="0px" y="0px"
	 width="100%" viewBox="0 0 1024 1024" enable-background="new 0 0 1024 1024" xml:space="preserve">
<path fill="#020101" opacity="1.000000" stroke="none" 
	d="
M1.000012,952.000000 
	C1.000000,660.303955 1.000000,368.607941 1.359427,76.314697 
	C7.314767,44.529781 24.036337,21.659216 53.062412,8.590434 
	C60.921032,5.052146 69.663307,3.476486 78.000000,1.000000 
	C367.029388,1.000000 656.058777,1.000000 945.942993,1.015165 
	C947.731812,1.313921 948.647522,1.707090 949.602234,1.865297 
	C985.732788,7.853187 1009.693115,28.133095 1021.251831,62.924175 
	C1022.680176,67.223320 1023.759155,71.638557 1025.000000,76.000000 
	C1025.000000,369.362701 1025.000000,662.725403 1024.603516,956.547607 
	C1021.868286,958.229126 1019.494934,959.390076 1017.198730,960.687561 
	C1013.715881,962.655823 1010.351318,965.067871 1006.691345,960.868164 
	C1006.144470,960.240662 1004.737610,960.362671 1002.853088,959.943054 
	C1005.638489,964.938049 1006.087830,969.094482 1001.917908,972.943176 
	C1003.455994,973.758240 1004.614929,974.372375 1006.205383,975.215149 
	C1004.618896,976.354919 1003.505859,977.154541 1002.211426,978.084473 
	C1004.712219,980.259338 1007.008911,982.256775 1009.679443,984.579285 
	C1002.540100,984.618225 1005.223328,988.333679 1006.855225,991.235413 
	C1004.455322,994.338623 1002.282654,997.148010 1000.722717,999.165039 
	C996.850403,1001.427490 993.529114,1003.423645 990.145142,1005.307251 
	C989.270203,1005.794373 988.216675,1006.065002 987.213867,1006.196716 
	C985.085449,1006.476135 982.913757,1006.462891 980.800903,1006.815674 
	C977.110046,1007.432251 973.392578,1008.023621 969.791077,1009.008789 
	C964.583679,1010.433289 959.420044,1012.061584 954.341675,1013.891296 
	C952.445862,1014.574341 950.841980,1016.067749 949.105042,1017.191711 
	C948.703247,1016.792969 948.301514,1016.394226 947.899719,1015.995483 
	C948.785889,1014.235901 949.672119,1012.476318 950.558350,1010.716797 
	C950.196045,1010.385864 949.833801,1010.054932 949.471558,1009.724060 
	C946.957397,1012.028564 944.443237,1014.333069 942.797546,1015.841553 
	C940.597839,1014.818848 939.162109,1014.151367 937.726379,1013.483826 
	C937.518372,1017.883789 931.266052,1019.803040 933.000000,1025.000000 
	C646.637329,1025.000000 360.274597,1025.000000 73.334702,1024.640503 
	C71.483459,1023.914734 70.219688,1023.507019 68.933838,1023.188354 
	C33.271629,1014.350830 11.178799,992.105042 2.749536,956.306763 
	C2.398625,954.816467 1.593522,953.433167 1.000012,952.000000 
M186.578369,480.115112 
	C166.916626,490.045441 145.994308,494.794464 124.044731,494.858368 
	C119.448204,494.871765 118.103699,496.211700 118.121307,500.798553 
	C118.280556,542.285767 118.203735,583.773804 118.251427,625.261536 
	C118.254829,628.221191 118.694908,631.180298 119.019325,635.230713 
	C216.099121,632.454651 294.095154,593.574219 349.969574,514.242554 
	C415.916901,420.609100 415.731384,300.306854 351.389832,205.936890 
	C288.971710,114.388054 186.323975,79.967751 119.013855,83.666275 
	C118.744987,85.755394 118.233131,87.891685 118.230042,90.028709 
	C118.168594,132.515976 118.190147,175.003372 118.105652,217.490570 
	C118.098862,220.905182 119.288345,222.013031 122.739136,222.210205 
	C131.186050,222.692902 139.765106,222.901093 148.006927,224.598740 
	C195.985352,234.481293 230.925369,261.241852 250.187790,306.640961 
	C267.159241,346.640564 264.777069,386.239716 243.950500,424.350769 
	C230.763016,448.482880 211.426804,466.712219 186.578369,480.115112 
M649.825134,263.715515 
	C649.180603,262.181580 648.503357,260.660461 647.896423,259.111786 
	C634.593994,225.166885 614.762756,195.392136 589.583191,169.218323 
	C564.148865,142.779602 534.608276,121.961639 501.038330,107.048492 
	C466.578552,91.740036 430.541901,83.310936 392.741516,82.905800 
	C390.988434,82.887009 389.232880,83.103172 387.064514,83.235092 
	C387.064514,86.915985 387.065826,90.057030 387.064301,93.198074 
	C387.044403,134.195938 387.107788,175.194260 386.893738,216.191101 
	C386.868134,221.096863 388.396118,222.258530 393.073334,222.274689 
	C399.689789,222.297562 406.363281,222.944153 412.907166,223.985519 
	C449.823822,229.860321 479.826294,247.800949 502.152252,277.599670 
	C524.257446,307.103821 533.478088,340.590607 527.919739,377.285034 
	C520.279358,427.724121 492.105408,462.961945 446.018768,483.968140 
	C429.022461,491.714996 410.866364,495.048279 392.146729,494.902222 
	C389.026764,494.877899 386.875061,494.958221 386.892670,499.263092 
	C387.070679,542.760193 387.103119,586.258301 386.994019,629.755615 
	C386.983429,633.981140 388.780670,635.019348 392.364044,634.793640 
	C402.655396,634.145325 413.012238,634.027039 423.226471,632.758789 
	C455.384064,628.766174 485.955994,619.281860 514.784668,604.499084 
	C569.272095,576.559021 610.385864,535.053162 638.165894,480.616241 
	C659.439148,438.929749 669.294250,394.565765 667.214417,347.614990 
	C665.943726,318.930145 660.055847,291.286530 649.825134,263.715515 
M654.966614,191.500000 
	C654.957764,199.833237 655.154541,208.173874 654.854065,216.496597 
	C654.701904,220.712173 655.690247,222.409561 660.314697,222.277496 
	C666.274841,222.107300 672.344177,222.394714 678.224121,223.355865 
	C706.310791,227.946945 731.215881,239.199905 752.384766,258.629486 
	C779.050171,283.103943 793.808472,313.509338 796.649536,349.215118 
	C799.368896,383.390900 789.729797,414.378815 768.362610,441.485474 
	C740.952576,476.258240 704.919006,493.725983 660.863403,494.778778 
	C655.991394,494.895203 654.775940,496.230591 654.801819,500.990356 
	C655.011963,539.655334 654.950317,578.321777 654.977783,616.987793 
	C654.981079,621.654236 654.767517,626.344849 655.205444,630.972107 
	C655.332581,632.315308 657.268372,634.391113 658.561218,634.542542 
	C661.818848,634.924072 665.180969,634.313110 668.503967,634.253723 
	C694.667236,633.785400 720.057983,628.874512 744.774658,620.543640 
	C796.995728,602.942322 840.301880,572.369812 874.336914,529.161438 
	C917.506042,474.357025 938.673157,412.280731 934.273804,342.051849 
	C932.445862,312.870728 925.963806,284.820465 914.941467,257.832825 
	C898.956116,218.693359 875.304382,184.860703 844.002197,156.363312 
	C819.369263,133.937775 791.612854,116.533173 760.900574,103.738792 
	C733.012939,92.121140 703.886963,85.734695 673.869812,83.259392 
	C667.815491,82.760132 661.684753,83.187218 654.964539,83.187218 
	C654.964539,119.253136 654.964539,154.876572 654.966614,191.500000 
M306.949951,844.500000 
	C306.949951,876.272522 306.949951,908.045105 306.949951,939.761536 
	C317.790558,939.761536 328.155975,939.761536 338.729828,939.761536 
	C338.729828,938.210876 338.729492,937.060120 338.729919,935.909363 
	C338.743042,898.414429 338.790649,860.919495 338.734131,823.424683 
	C338.725098,817.434387 338.554810,811.412781 337.933472,805.460571 
	C335.815186,785.168030 327.919769,768.377441 307.753296,760.360474 
	C292.365906,754.243347 276.504700,754.323853 260.793457,759.566223 
	C246.867065,764.212952 236.550659,773.556091 228.008377,786.094421 
	C218.334229,763.893738 200.561462,755.861633 178.090118,756.011658 
	C155.995682,756.159180 138.548935,765.501160 125.135223,783.096863 
	C125.135223,775.492859 125.135223,767.888855 125.135223,760.207031 
	C115.180817,760.207031 105.474319,760.207031 95.701370,760.207031 
	C95.701370,820.306396 95.701370,880.068237 95.701370,939.999512 
	C106.282555,939.999512 116.579834,939.999512 127.333260,939.999512 
	C127.333260,938.047485 127.331139,936.252747 127.333588,934.457947 
	C127.372719,905.795227 127.299873,877.131592 127.521370,848.470276 
	C127.586861,839.995544 127.994102,831.463257 129.093628,823.068481 
	C131.962250,801.166809 145.042175,786.893494 164.682770,783.481995 
	C182.604874,780.369080 195.658493,788.802612 199.278122,806.544373 
	C200.664200,813.338318 201.025528,820.433594 201.059769,827.395447 
	C201.233627,862.723206 201.146744,898.052124 201.151138,933.380676 
	C201.151398,935.502014 201.151154,937.623413 201.151154,939.943115 
	C211.859360,939.943115 222.104843,939.943115 232.836273,939.943115 
	C232.836273,937.593323 232.836792,935.471191 232.836182,933.349060 
	C232.827637,903.186462 232.745331,873.023560 232.863373,842.861450 
	C232.892014,835.548157 233.105225,828.174561 234.060745,820.937866 
	C236.386200,803.326111 245.337189,790.698425 262.702148,784.838806 
	C285.451050,777.162292 304.006622,788.775513 306.102112,812.545227 
	C307.006897,822.808655 306.704559,833.178528 306.949951,844.500000 
M726.817810,859.275269 
	C770.574646,859.275269 814.331543,859.275269 859.445740,859.275269 
	C858.233093,846.202881 857.819641,833.706055 855.773071,821.482727 
	C852.304993,800.769043 842.841553,783.175781 825.594177,770.398865 
	C810.186707,758.984924 792.621399,755.130188 773.824524,755.801575 
	C740.231262,757.001465 715.312439,772.279053 702.125305,803.346680 
	C689.041199,834.171509 688.911621,866.041687 701.431824,897.190796 
	C709.156311,916.408508 722.799805,930.879822 742.612854,938.403992 
	C765.426636,947.067688 788.626465,947.462341 811.427124,938.854614 
	C836.137146,929.526123 849.654480,910.318970 856.416138,884.175476 
	C846.701660,884.175476 837.717529,884.366821 828.749146,884.075500 
	C825.452515,883.968384 824.144836,885.173340 823.070679,888.048828 
	C812.195679,917.161377 784.567688,923.850525 760.592529,916.121399 
	C739.248474,909.240601 724.576782,884.790100 726.817810,859.275269 
M445.292267,756.809448 
	C417.955109,761.019348 398.016266,775.450684 386.015869,800.373413 
	C376.266327,820.621399 374.685242,842.247375 376.542389,864.265442 
	C377.916321,880.554626 382.091858,896.093872 391.155762,909.864441 
	C405.772919,932.071838 427.071228,942.750732 453.174988,944.586365 
	C496.195038,947.611572 528.985596,924.639282 540.069275,886.552185 
	C544.829956,870.193115 546.105103,853.506287 544.632080,836.632080 
	C543.125549,819.374878 539.243896,802.694214 528.770752,788.444153 
	C508.087982,760.302673 479.283752,752.763306 445.292267,756.809448 
M930.760132,830.500122 
	C930.760132,785.086609 930.760132,739.673035 930.760132,694.284424 
	C919.790955,694.284424 909.396729,694.284424 899.109619,694.284424 
	C899.109619,776.361572 899.109619,858.101868 899.109619,940.205933 
	C909.824158,940.205933 920.255493,940.205933 930.760742,940.205933 
	C930.760742,903.730469 930.760742,867.615356 930.760132,830.500122 
M616.056091,863.500000 
	C616.690735,851.213623 616.442261,838.801819 618.166504,826.670288 
	C620.770996,808.344666 630.286316,794.495544 649.108215,789.723999 
	C656.812744,787.770874 665.128662,788.229187 673.596436,787.556274 
	C673.596436,782.122253 673.587219,775.655334 673.598328,769.188354 
	C673.620972,756.000916 672.791992,755.241394 659.458984,756.313232 
	C658.961182,756.353271 658.465942,756.425964 657.968384,756.470886 
	C639.521179,758.137939 627.411987,769.054077 617.990784,783.880615 
	C616.976990,785.476196 616.043945,787.123047 615.073425,788.746094 
	C614.780884,788.658020 614.488342,788.570007 614.195801,788.481934 
	C614.195801,779.114807 614.195801,769.747681 614.195801,760.139526 
	C604.010864,760.139526 594.281189,760.139526 584.402466,760.139526 
	C584.402466,820.196167 584.402466,880.052551 584.402466,939.804138 
	C595.087769,939.804138 605.473267,939.804138 616.056763,939.804138 
	C616.056763,914.447327 616.056763,889.473694 616.056091,863.500000 
M954.683838,76.842201 
	C946.498413,67.023285 936.155396,61.054520 923.290649,60.649239 
	C905.672058,60.094196 891.755493,67.302780 883.231018,82.883621 
	C874.305359,99.197662 875.660522,115.630760 886.886536,130.228989 
	C897.704102,144.295990 912.689087,150.031830 930.295898,146.115417 
	C960.899231,139.308014 974.240723,103.370171 954.683838,76.842201 
z"/>
<path fill="#FCFCFC" opacity="1.000000" stroke="none" 
	d="
M77.531342,1.000000 
	C69.663307,3.476486 60.921032,5.052146 53.062412,8.590434 
	C24.036337,21.659216 7.314767,44.529781 1.359427,75.858742 
	C1.000000,51.072166 1.000000,26.144329 1.000000,1.000000 
	C26.353817,1.000000 51.708248,1.000000 77.531342,1.000000 
z"/>
<path fill="#FCFCFC" opacity="1.000000" stroke="none" 
	d="
M1025.000000,75.531342 
	C1023.759155,71.638557 1022.680176,67.223320 1021.251831,62.924175 
	C1009.693115,28.133095 985.732788,7.853187 949.602234,1.865297 
	C948.647522,1.707090 947.731812,1.313921 946.398926,1.015165 
	C972.258301,1.000000 998.516602,1.000000 1025.000000,1.000000 
	C1025.000000,25.687105 1025.000000,50.374893 1025.000000,75.531342 
z"/>
<path fill="#FCFCFC" opacity="1.000000" stroke="none" 
	d="
M1.000012,952.468628 
	C1.593522,953.433167 2.398625,954.816467 2.749536,956.306763 
	C11.178799,992.105042 33.271629,1014.350830 68.933838,1023.188354 
	C70.219688,1023.507019 71.483459,1023.914734 72.878754,1024.640503 
	C49.072632,1025.000000 25.145264,1025.000000 1.000000,1025.000000 
	C1.000000,1000.979553 1.000000,976.958435 1.000012,952.468628 
z"/>
<path fill="#0D0D0D" opacity="1.000000" stroke="none" 
	d="
M933.468628,1025.000000 
	C931.266052,1019.803040 937.518372,1017.883789 937.726379,1013.483826 
	C939.162109,1014.151367 940.597839,1014.818848 942.797546,1015.841553 
	C944.443237,1014.333069 946.957397,1012.028564 949.471558,1009.724060 
	C949.833801,1010.054932 950.196045,1010.385864 950.558350,1010.716797 
	C949.672119,1012.476318 948.785889,1014.235901 947.899719,1015.995483 
	C948.301514,1016.394226 948.703247,1016.792969 949.105042,1017.191711 
	C950.841980,1016.067749 952.445862,1014.574341 954.341675,1013.891296 
	C959.420044,1012.061584 964.583679,1010.433289 969.791077,1009.008789 
	C973.392578,1008.023621 977.110046,1007.432251 980.800903,1006.815674 
	C982.913757,1006.462891 985.085449,1006.476135 987.213867,1006.196716 
	C988.216675,1006.065002 989.270203,1005.794373 990.145142,1005.307251 
	C993.529114,1003.423645 996.850403,1001.427490 1000.722717,999.165039 
	C1002.282654,997.148010 1004.455322,994.338623 1006.855225,991.235413 
	C1005.223328,988.333679 1002.540100,984.618225 1009.679443,984.579285 
	C1007.008911,982.256775 1004.712219,980.259338 1002.211426,978.084473 
	C1003.505859,977.154541 1004.618896,976.354919 1006.205383,975.215149 
	C1004.614929,974.372375 1003.455994,973.758240 1001.917908,972.943176 
	C1006.087830,969.094482 1005.638489,964.938049 1002.853088,959.943054 
	C1004.737610,960.362671 1006.144470,960.240662 1006.691345,960.868164 
	C1010.351318,965.067871 1013.715881,962.655823 1017.198730,960.687561 
	C1019.494934,959.390076 1021.868286,958.229126 1024.603516,957.003540 
	C1025.000000,957.000000 1025.000000,957.500000 1024.635010,957.866577 
	C1022.156555,965.612427 1020.255737,973.060547 1017.887756,980.357117 
	C1012.072083,998.277100 1001.650879,1012.566467 984.621399,1021.461121 
	C982.403320,1022.619690 980.206604,1023.819397 978.000000,1025.000000 
	C963.312439,1025.000000 948.624878,1025.000000 933.468628,1025.000000 
M1016.563293,966.293640 
	C1016.292908,966.010315 1016.022461,965.726929 1015.752014,965.443542 
	C1015.634766,965.555725 1015.409424,965.759094 1015.415894,965.766907 
	C1015.668091,966.065735 1015.941589,966.346619 1016.563293,966.293640 
z"/>
<path fill="#F8F8F8" opacity="1.000000" stroke="none" 
	d="
M978.468628,1025.000000 
	C980.206604,1023.819397 982.403320,1022.619690 984.621399,1021.461121 
	C1001.650879,1012.566467 1012.072083,998.277100 1017.887756,980.357117 
	C1020.255737,973.060547 1022.156555,965.612427 1024.635010,958.116577 
	C1025.000000,980.247253 1025.000000,1002.494568 1025.000000,1025.000000 
	C1009.646729,1025.000000 994.292053,1025.000000 978.468628,1025.000000 
z"/>
<path fill="#BB242B" opacity="1.000000" stroke="none" 
	d="
M186.904755,479.945129 
	C211.426804,466.712219 230.763016,448.482880 243.950500,424.350769 
	C264.777069,386.239716 267.159241,346.640564 250.187790,306.640961 
	C230.925369,261.241852 195.985352,234.481293 148.006927,224.598740 
	C139.765106,222.901093 131.186050,222.692902 122.739136,222.210205 
	C119.288345,222.013031 118.098862,220.905182 118.105652,217.490570 
	C118.190147,175.003372 118.168594,132.515976 118.230042,90.028709 
	C118.233131,87.891685 118.744987,85.755394 119.013855,83.666275 
	C186.323975,79.967751 288.971710,114.388054 351.389832,205.936890 
	C415.731384,300.306854 415.916901,420.609100 349.969574,514.242554 
	C294.095154,593.574219 216.099121,632.454651 119.019325,635.230713 
	C118.694908,631.180298 118.254829,628.221191 118.251427,625.261536 
	C118.203735,583.773804 118.280556,542.285767 118.121307,500.798553 
	C118.103699,496.211700 119.448204,494.871765 124.044731,494.858368 
	C145.994308,494.794464 166.916626,490.045441 186.904755,479.945129 
z"/>
<path fill="#BB242B" opacity="1.000000" stroke="none" 
	d="
M649.971619,264.072388 
	C660.055847,291.286530 665.943726,318.930145 667.214417,347.614990 
	C669.294250,394.565765 659.439148,438.929749 638.165894,480.616241 
	C610.385864,535.053162 569.272095,576.559021 514.784668,604.499084 
	C485.955994,619.281860 455.384064,628.766174 423.226471,632.758789 
	C413.012238,634.027039 402.655396,634.145325 392.364044,634.793640 
	C388.780670,635.019348 386.983429,633.981140 386.994019,629.755615 
	C387.103119,586.258301 387.070679,542.760193 386.892670,499.263092 
	C386.875061,494.958221 389.026764,494.877899 392.146729,494.902222 
	C410.866364,495.048279 429.022461,491.714996 446.018768,483.968140 
	C492.105408,462.961945 520.279358,427.724121 527.919739,377.285034 
	C533.478088,340.590607 524.257446,307.103821 502.152252,277.599670 
	C479.826294,247.800949 449.823822,229.860321 412.907166,223.985519 
	C406.363281,222.944153 399.689789,222.297562 393.073334,222.274689 
	C388.396118,222.258530 386.868134,221.096863 386.893738,216.191101 
	C387.107788,175.194260 387.044403,134.195938 387.064301,93.198074 
	C387.065826,90.057030 387.064514,86.915985 387.064514,83.235092 
	C389.232880,83.103172 390.988434,82.887009 392.741516,82.905800 
	C430.541901,83.310936 466.578552,91.740036 501.038330,107.048492 
	C534.608276,121.961639 564.148865,142.779602 589.583191,169.218323 
	C614.762756,195.392136 634.593994,225.166885 647.896423,259.111786 
	C648.503357,260.660461 649.180603,262.181580 649.971619,264.072388 
z"/>
<path fill="#BC242C" opacity="1.000000" stroke="none" 
	d="
M654.965576,191.000000 
	C654.964539,154.876572 654.964539,119.253136 654.964539,83.187218 
	C661.684753,83.187218 667.815491,82.760132 673.869812,83.259392 
	C703.886963,85.734695 733.012939,92.121140 760.900574,103.738792 
	C791.612854,116.533173 819.369263,133.937775 844.002197,156.363312 
	C875.304382,184.860703 898.956116,218.693359 914.941467,257.832825 
	C925.963806,284.820465 932.445862,312.870728 934.273804,342.051849 
	C938.673157,412.280731 917.506042,474.357025 874.336914,529.161438 
	C840.301880,572.369812 796.995728,602.942322 744.774658,620.543640 
	C720.057983,628.874512 694.667236,633.785400 668.503967,634.253723 
	C665.180969,634.313110 661.818848,634.924072 658.561218,634.542542 
	C657.268372,634.391113 655.332581,632.315308 655.205444,630.972107 
	C654.767517,626.344849 654.981079,621.654236 654.977783,616.987793 
	C654.950317,578.321777 655.011963,539.655334 654.801819,500.990356 
	C654.775940,496.230591 655.991394,494.895203 660.863403,494.778778 
	C704.919006,493.725983 740.952576,476.258240 768.362610,441.485474 
	C789.729797,414.378815 799.368896,383.390900 796.649536,349.215118 
	C793.808472,313.509338 779.050171,283.103943 752.384766,258.629486 
	C731.215881,239.199905 706.310791,227.946945 678.224121,223.355865 
	C672.344177,222.394714 666.274841,222.107300 660.314697,222.277496 
	C655.690247,222.409561 654.701904,220.712173 654.854065,216.496597 
	C655.154541,208.173874 654.957764,199.833237 654.965576,191.000000 
z"/>
<path fill="#FCFCFC" opacity="1.000000" stroke="none" 
	d="
M306.950256,844.000000 
	C306.704559,833.178528 307.006897,822.808655 306.102112,812.545227 
	C304.006622,788.775513 285.451050,777.162292 262.702148,784.838806 
	C245.337189,790.698425 236.386200,803.326111 234.060745,820.937866 
	C233.105225,828.174561 232.892014,835.548157 232.863373,842.861450 
	C232.745331,873.023560 232.827637,903.186462 232.836182,933.349060 
	C232.836792,935.471191 232.836273,937.593323 232.836273,939.943115 
	C222.104843,939.943115 211.859360,939.943115 201.151154,939.943115 
	C201.151154,937.623413 201.151398,935.502014 201.151138,933.380676 
	C201.146744,898.052124 201.233627,862.723206 201.059769,827.395447 
	C201.025528,820.433594 200.664200,813.338318 199.278122,806.544373 
	C195.658493,788.802612 182.604874,780.369080 164.682770,783.481995 
	C145.042175,786.893494 131.962250,801.166809 129.093628,823.068481 
	C127.994102,831.463257 127.586861,839.995544 127.521370,848.470276 
	C127.299873,877.131592 127.372719,905.795227 127.333588,934.457947 
	C127.331139,936.252747 127.333260,938.047485 127.333260,939.999512 
	C116.579834,939.999512 106.282555,939.999512 95.701370,939.999512 
	C95.701370,880.068237 95.701370,820.306396 95.701370,760.207031 
	C105.474319,760.207031 115.180817,760.207031 125.135223,760.207031 
	C125.135223,767.888855 125.135223,775.492859 125.135223,783.096863 
	C138.548935,765.501160 155.995682,756.159180 178.090118,756.011658 
	C200.561462,755.861633 218.334229,763.893738 228.008377,786.094421 
	C236.550659,773.556091 246.867065,764.212952 260.793457,759.566223 
	C276.504700,754.323853 292.365906,754.243347 307.753296,760.360474 
	C327.919769,768.377441 335.815186,785.168030 337.933472,805.460571 
	C338.554810,811.412781 338.725098,817.434387 338.734131,823.424683 
	C338.790649,860.919495 338.743042,898.414429 338.729919,935.909363 
	C338.729492,937.060120 338.729828,938.210876 338.729828,939.761536 
	C328.155975,939.761536 317.790558,939.761536 306.949951,939.761536 
	C306.949951,908.045105 306.949951,876.272522 306.950256,844.000000 
z"/>
<path fill="#FCFCFC" opacity="1.000000" stroke="none" 
	d="
M726.417603,859.525635 
	C724.576782,884.790100 739.248474,909.240601 760.592529,916.121399 
	C784.567688,923.850525 812.195679,917.161377 823.070679,888.048828 
	C824.144836,885.173340 825.452515,883.968384 828.749146,884.075500 
	C837.717529,884.366821 846.701660,884.175476 856.416138,884.175476 
	C849.654480,910.318970 836.137146,929.526123 811.427124,938.854614 
	C788.626465,947.462341 765.426636,947.067688 742.612854,938.403992 
	C722.799805,930.879822 709.156311,916.408508 701.431824,897.190796 
	C688.911621,866.041687 689.041199,834.171509 702.125305,803.346680 
	C715.312439,772.279053 740.231262,757.001465 773.824524,755.801575 
	C792.621399,755.130188 810.186707,758.984924 825.594177,770.398865 
	C842.841553,783.175781 852.304993,800.769043 855.773071,821.482727 
	C857.819641,833.706055 858.233093,846.202881 859.445740,859.275269 
	C814.331543,859.275269 770.574646,859.275269 726.417603,859.525635 
M743.502441,833.956604 
	C770.883301,833.956604 798.264160,833.956604 825.684021,833.956604 
	C823.157043,795.079956 800.019775,781.244080 776.705444,781.404541 
	C748.571960,781.598267 729.396057,801.526062 726.566284,833.955688 
	C731.900452,833.955688 737.202148,833.955688 743.502441,833.956604 
z"/>
<path fill="#FCFCFC" opacity="1.000000" stroke="none" 
	d="
M445.731934,756.738892 
	C479.283752,752.763306 508.087982,760.302673 528.770752,788.444153 
	C539.243896,802.694214 543.125549,819.374878 544.632080,836.632080 
	C546.105103,853.506287 544.829956,870.193115 540.069275,886.552185 
	C528.985596,924.639282 496.195038,947.611572 453.174988,944.586365 
	C427.071228,942.750732 405.772919,932.071838 391.155762,909.864441 
	C382.091858,896.093872 377.916321,880.554626 376.542389,864.265442 
	C374.685242,842.247375 376.266327,820.621399 386.015869,800.373413 
	C398.016266,775.450684 417.955109,761.019348 445.731934,756.738892 
M511.966217,835.715576 
	C510.367981,828.603638 509.437622,821.258057 507.046906,814.423340 
	C499.717133,793.468445 483.053436,781.887329 460.789246,781.502747 
	C439.982666,781.143372 422.818695,792.651550 415.024506,812.950317 
	C406.049194,836.324890 405.968689,860.250000 413.358276,883.920471 
	C420.316986,906.210876 438.286621,918.867981 460.813385,918.862427 
	C482.656342,918.856995 499.608032,906.099304 507.153381,883.908020 
	C512.382324,868.529419 513.680969,852.728210 511.966217,835.715576 
z"/>
<path fill="#FCFCFB" opacity="1.000000" stroke="none" 
	d="
M930.760437,831.000183 
	C930.760742,867.615356 930.760742,903.730469 930.760742,940.205933 
	C920.255493,940.205933 909.824158,940.205933 899.109619,940.205933 
	C899.109619,858.101868 899.109619,776.361572 899.109619,694.284424 
	C909.396729,694.284424 919.790955,694.284424 930.760132,694.284424 
	C930.760132,739.673035 930.760132,785.086609 930.760437,831.000183 
z"/>
<path fill="#FCFCFC" opacity="1.000000" stroke="none" 
	d="
M616.056396,864.000000 
	C616.056763,889.473694 616.056763,914.447327 616.056763,939.804138 
	C605.473267,939.804138 595.087769,939.804138 584.402466,939.804138 
	C584.402466,880.052551 584.402466,820.196167 584.402466,760.139526 
	C594.281189,760.139526 604.010864,760.139526 614.195801,760.139526 
	C614.195801,769.747681 614.195801,779.114807 614.195801,788.481934 
	C614.488342,788.570007 614.780884,788.658020 615.073425,788.746094 
	C616.043945,787.123047 616.976990,785.476196 617.990784,783.880615 
	C627.411987,769.054077 639.521179,758.137939 657.968384,756.470886 
	C658.465942,756.425964 658.961182,756.353271 659.458984,756.313232 
	C672.791992,755.241394 673.620972,756.000916 673.598328,769.188354 
	C673.587219,775.655334 673.596436,782.122253 673.596436,787.556274 
	C665.128662,788.229187 656.812744,787.770874 649.108215,789.723999 
	C630.286316,794.495544 620.770996,808.344666 618.166504,826.670288 
	C616.442261,838.801819 616.690735,851.213623 616.056396,864.000000 
z"/>
<path fill="#F4F4F4" opacity="1.000000" stroke="none" 
	d="
M954.891968,77.133125 
	C974.240723,103.370171 960.899231,139.308014 930.295898,146.115417 
	C912.689087,150.031830 897.704102,144.295990 886.886536,130.228989 
	C875.660522,115.630760 874.305359,99.197662 883.231018,82.883621 
	C891.755493,67.302780 905.672058,60.094196 923.290649,60.649239 
	C936.155396,61.054520 946.498413,67.023285 954.891968,77.133125 
M952.080261,120.453377 
	C952.641479,119.250084 953.276306,118.075180 953.752808,116.839188 
	C959.580872,101.721855 954.243103,84.004219 941.065247,74.650024 
	C928.324951,65.606392 910.505981,66.366554 898.448730,76.468086 
	C885.911316,86.971970 881.815125,104.972908 889.203735,119.449310 
	C895.283813,131.362045 904.934814,138.576691 918.714844,139.284912 
	C933.451660,140.042297 944.280945,133.599289 952.080261,120.453377 
z"/>
<path fill="#020101" opacity="1.000000" stroke="none" 
	d="
M1016.387756,966.461792 
	C1015.941589,966.346619 1015.668091,966.065735 1015.415894,965.766907 
	C1015.409424,965.759094 1015.634766,965.555725 1015.752075,965.443604 
	C1016.022461,965.726929 1016.292908,966.010315 1016.387756,966.461792 
z"/>
<path fill="#030303" opacity="1.000000" stroke="none" 
	d="
M743.003174,833.956177 
	C737.202148,833.955688 731.900452,833.955688 726.566284,833.955688 
	C729.396057,801.526062 748.571960,781.598267 776.705444,781.404541 
	C800.019775,781.244080 823.157043,795.079956 825.684021,833.956604 
	C798.264160,833.956604 770.883301,833.956604 743.003174,833.956177 
z"/>
<path fill="#020202" opacity="1.000000" stroke="none" 
	d="
M511.997681,836.173401 
	C513.680969,852.728210 512.382324,868.529419 507.153381,883.908020 
	C499.608032,906.099304 482.656342,918.856995 460.813385,918.862427 
	C438.286621,918.867981 420.316986,906.210876 413.358276,883.920471 
	C405.968689,860.250000 406.049194,836.324890 415.024506,812.950317 
	C422.818695,792.651550 439.982666,781.143372 460.789246,781.502747 
	C483.053436,781.887329 499.717133,793.468445 507.046906,814.423340 
	C509.437622,821.258057 510.367981,828.603638 511.997681,836.173401 
z"/>
<path fill="#080808" opacity="1.000000" stroke="none" 
	d="
M951.933105,120.795525 
	C944.280945,133.599289 933.451660,140.042297 918.714844,139.284912 
	C904.934814,138.576691 895.283813,131.362045 889.203735,119.449310 
	C881.815125,104.972908 885.911316,86.971970 898.448730,76.468086 
	C910.505981,66.366554 928.324951,65.606392 941.065247,74.650024 
	C954.243103,84.004219 959.580872,101.721855 953.752808,116.839188 
	C953.276306,118.075180 952.641479,119.250084 951.933105,120.795525 
M903.366394,121.328476 
	C903.366394,123.418594 903.366394,125.508720 903.366394,127.668274 
	C906.360229,127.668274 908.654907,127.668274 911.504395,127.668274 
	C911.504395,120.778587 911.504395,114.041718 911.504395,107.473785 
	C918.243103,105.707047 922.255859,108.259399 924.802734,113.833221 
	C925.906555,116.249062 927.544189,118.457466 928.392151,120.946526 
	C930.458984,127.013550 934.396973,129.192444 941.228333,127.266197 
	C937.140381,120.130470 933.099304,113.076698 929.105652,106.105614 
	C936.601135,103.556717 939.961121,99.233574 939.535583,92.252853 
	C939.150024,85.926743 935.516602,80.835213 929.468384,80.377876 
	C920.935120,79.732635 912.316650,80.214508 903.379761,80.214508 
	C903.379761,93.768524 903.379761,107.067406 903.366394,121.328476 
z"/>
<path fill="#F2F2F2" opacity="1.000000" stroke="none" 
	d="
M903.373047,120.847382 
	C903.379761,107.067406 903.379761,93.768524 903.379761,80.214508 
	C912.316650,80.214508 920.935120,79.732635 929.468384,80.377876 
	C935.516602,80.835213 939.150024,85.926743 939.535583,92.252853 
	C939.961121,99.233574 936.601135,103.556717 929.105652,106.105614 
	C933.099304,113.076698 937.140381,120.130470 941.228333,127.266197 
	C934.396973,129.192444 930.458984,127.013550 928.392151,120.946526 
	C927.544189,118.457466 925.906555,116.249062 924.802734,113.833221 
	C922.255859,108.259399 918.243103,105.707047 911.504395,107.473785 
	C911.504395,114.041718 911.504395,120.778587 911.504395,127.668274 
	C908.654907,127.668274 906.360229,127.668274 903.366394,127.668274 
	C903.366394,125.508720 903.366394,123.418594 903.373047,120.847382 
M911.514893,94.097916 
	C911.514893,96.198593 911.514893,98.299271 911.514893,100.383301 
	C916.557190,100.383301 921.027161,100.650978 925.449280,100.306122 
	C929.657959,99.977898 931.376526,97.060600 931.292725,93.012794 
	C931.210083,89.023262 928.975159,86.706131 925.184387,86.433357 
	C920.769653,86.115700 916.314636,86.359222 911.516846,86.359222 
	C911.516846,88.901924 911.516846,91.048088 911.514893,94.097916 
z"/>
<path fill="#0F0F10" opacity="1.000000" stroke="none" 
	d="
M911.515869,93.646088 
	C911.516846,91.048088 911.516846,88.901924 911.516846,86.359222 
	C916.314636,86.359222 920.769653,86.115700 925.184387,86.433357 
	C928.975159,86.706131 931.210083,89.023262 931.292725,93.012794 
	C931.376526,97.060600 929.657959,99.977898 925.449280,100.306122 
	C921.027161,100.650978 916.557190,100.383301 911.514893,100.383301 
	C911.514893,98.299271 911.514893,96.198593 911.515869,93.646088 
z"/>
</svg>