<?xml version="1.0" standalone="no"?>
<!DOCTYPE svg PUBLIC "-//W3C//DTD SVG 20010904//EN"
 "http://www.w3.org/TR/2001/REC-SVG-20010904/DTD/svg10.dtd">
<svg version="1.0" xmlns="http://www.w3.org/2000/svg"
 width="1312.879717pt" height="168.542711pt" viewBox="0 0 1312.879717 168.542711"
 preserveAspectRatio="xMidYMid meet">
<metadata>
Created by potrace 1.12, written by Peter Selinger 2001-2015
</metadata>
<g transform="translate(-19.000000,238.796035) scale(0.100000,-0.100000)"
fill="#000000" stroke="none">
<path d="M190 1688 c0 -559 3 -698 13 -690 11 9 652 381 1044 606 78 44 142
83 142 86 0 3 -176 106 -391 230 -215 124 -484 280 -599 346 l-209 122 0 -700z
m623 252 c235 -135 426 -247 426 -250 0 -4 -847 -496 -935 -543 l-34 -17 0
561 0 561 59 -34 c32 -18 250 -143 484 -278z"/>
<path d="M9942 1910 c-12 -19 -23 -20 -387 -20 -346 0 -418 -5 -355 -25 20 -6
20 -15 20 -380 0 -365 0 -374 -20 -380 -63 -20 10 -25 364 -25 376 0 385 0
391 -20 15 -47 25 -13 25 85 0 98 -10 132 -25 85 -6 -19 -15 -20 -281 -20
l-274 0 0 115 0 115 175 0 c164 0 176 -1 187 -20 7 -11 16 -20 20 -20 5 0 8
47 8 105 0 98 -10 132 -25 85 -6 -19 -15 -20 -186 -20 l-179 0 0 95 0 95 265
0 c254 0 265 -1 277 -20 7 -11 16 -20 20 -20 5 0 8 47 8 105 0 58 -3 105 -8
105 -4 0 -13 -9 -20 -20z"/>
<path d="M1600 1881 c0 -5 9 -13 20 -16 20 -6 20 -15 20 -380 0 -365 0 -374
-20 -380 -50 -16 -11 -25 110 -25 121 0 160 9 110 25 -19 6 -20 15 -20 156 l0
149 114 0 115 0 95 -137 c53 -75 96 -142 96 -150 0 -7 -7 -16 -15 -19 -42 -16
-2 -24 125 -24 77 0 140 4 140 8 0 4 -13 13 -29 18 -20 8 -59 55 -134 160 -58
82 -103 152 -99 155 4 3 29 12 56 19 75 20 131 79 146 153 9 43 9 71 0 110
-23 108 -87 161 -218 178 -92 12 -612 12 -612 0z m610 -136 c37 -19 50 -43 50
-95 0 -98 -28 -110 -260 -110 l-180 0 0 110 0 110 180 0 c142 0 187 -3 210
-15z"/>
<path d="M10090 1030 l0 -320 40 0 40 0 0 320 0 320 -40 0 -40 0 0 -320z"/>
<path d="M10870 1305 l0 -45 40 0 40 0 0 45 0 45 -40 0 -40 0 0 -45z"/>
<path d="M11660 1240 l0 -60 -30 0 c-28 0 -30 -3 -30 -35 0 -32 3 -35 29 -35
l29 0 4 -172 c2 -111 8 -181 16 -195 15 -28 74 -47 118 -39 30 6 34 11 34 36
0 27 -3 30 -33 30 -54 0 -57 9 -57 182 l0 158 40 0 c39 0 40 1 40 35 0 34 -1
35 -40 35 l-40 0 0 60 0 60 -40 0 -40 0 0 -60z"/>
<path d="M13189 1281 c-19 -15 -24 -29 -24 -66 0 -37 5 -51 24 -66 33 -27 77
-24 108 7 22 22 25 32 20 67 -10 71 -76 100 -128 58z m82 -11 c14 -8 19 -21
19 -56 0 -38 -3 -46 -25 -54 -16 -6 -34 -6 -50 0 -22 8 -25 16 -25 54 0 59 33
81 81 56z"/>
<path d="M13210 1216 c0 -25 5 -46 10 -46 6 0 10 8 10 18 1 16 1 16 14 0 20
-26 23 -22 22 25 -1 38 -3 42 -28 45 -27 3 -28 2 -28 -42z"/>
<path d="M2703 1181 c-30 -8 -55 -22 -94 -53 -9 -7 -27 -33 -39 -58 -41 -79
-29 -228 22 -290 51 -61 143 -89 234 -70 63 13 127 67 136 114 5 24 3 26 -32
26 -31 0 -39 -4 -44 -24 -15 -59 -158 -76 -212 -25 -31 29 -54 71 -54 99 0 19
5 20 180 20 204 0 189 -8 170 91 -20 103 -83 162 -186 173 -27 3 -64 1 -81 -3z
m133 -80 c28 -17 64 -73 64 -100 0 -7 -45 -11 -140 -11 -153 0 -154 0 -122 58
37 69 131 94 198 53z"/>
<path d="M3445 1181 c-46 -12 -82 -39 -99 -76 -20 -41 -20 -56 -1 -100 16 -40
56 -61 170 -89 39 -9 80 -24 93 -32 32 -21 30 -67 -5 -94 -24 -19 -38 -21 -95
-18 -71 4 -108 24 -108 60 0 14 -8 18 -40 18 -39 0 -40 -1 -34 -27 17 -79 82
-118 195 -117 121 1 183 49 183 144 0 78 -32 104 -173 140 -107 27 -123 37
-119 75 4 37 36 55 103 55 53 0 95 -20 95 -46 0 -10 12 -14 41 -14 37 0 40 2
34 23 -12 37 -34 66 -63 81 -35 18 -136 28 -177 17z"/>
<path d="M4264 1181 c-49 -12 -101 -48 -124 -86 -49 -79 -47 -229 5 -307 74
-111 276 -111 350 0 52 79 54 228 5 308 -41 66 -153 106 -236 85z m131 -81
c89 -55 86 -260 -4 -313 -37 -22 -105 -22 -142 0 -89 53 -93 257 -6 312 42 27
110 27 152 1z"/>
<path d="M5077 1176 c-22 -8 -50 -24 -63 -37 l-24 -22 0 31 c0 31 -2 32 -40
32 l-40 0 0 -235 0 -235 40 0 40 0 0 171 c0 130 3 174 14 184 59 59 150 73
185 29 19 -25 21 -40 21 -205 l0 -179 41 0 41 0 -4 188 c-3 154 -6 193 -21
219 -31 58 -119 85 -190 59z"/>
<path d="M5801 1180 c-69 -15 -108 -48 -126 -107 -6 -21 -3 -23 32 -23 30 0
40 5 48 22 15 33 52 48 121 48 80 0 114 -24 114 -79 l0 -38 -82 -7 c-105 -9
-170 -30 -207 -67 -60 -59 -46 -161 29 -204 53 -30 151 -27 213 7 l47 27 0
-25 c0 -21 4 -24 41 -24 l41 0 -4 189 c-3 174 -5 192 -24 218 -12 15 -34 36
-50 45 -36 21 -134 30 -193 18z m189 -293 c0 -59 -19 -86 -73 -106 -58 -22
-147 -10 -169 23 -12 18 -9 71 5 89 19 28 86 46 165 47 l72 0 0 -53z"/>
<path d="M6637 1176 c-22 -8 -50 -24 -63 -37 l-24 -22 0 31 c0 31 -2 32 -40
32 l-40 0 0 -235 0 -235 40 0 40 0 0 175 0 175 47 30 c63 40 123 41 152 4 19
-25 21 -40 21 -205 l0 -179 41 0 41 0 -4 188 c-3 154 -6 193 -21 219 -31 58
-119 85 -190 59z"/>
<path d="M7384 1181 c-49 -12 -101 -48 -124 -86 -31 -50 -44 -139 -31 -210 22
-118 94 -179 211 -179 94 0 159 41 180 112 9 32 9 32 -30 32 -32 0 -39 -4 -44
-25 -16 -63 -147 -75 -204 -19 -55 56 -55 222 0 278 57 56 188 44 204 -19 5
-21 12 -25 44 -25 39 0 39 0 30 32 -11 36 -43 74 -81 93 -34 18 -115 26 -155
16z"/>
<path d="M8162 1181 c-103 -26 -156 -107 -156 -236 0 -68 4 -87 27 -130 33
-60 74 -90 144 -105 79 -17 154 1 202 49 21 21 40 50 43 65 5 24 3 26 -32 26
-31 0 -39 -4 -44 -24 -14 -55 -149 -75 -208 -30 -29 21 -58 74 -58 104 0 19 8
20 181 20 l181 0 -7 58 c-12 96 -45 151 -111 185 -38 20 -118 29 -162 18z
m136 -81 c29 -18 62 -71 62 -100 0 -6 -50 -10 -140 -10 -153 0 -154 0 -122 58
37 70 131 94 200 52z"/>
<path d="M12562 1181 c-103 -26 -156 -107 -156 -236 0 -68 4 -87 27 -130 33
-60 74 -90 144 -105 79 -17 154 1 202 49 21 21 40 50 43 65 5 24 3 26 -32 26
-31 0 -39 -4 -44 -24 -14 -55 -149 -75 -208 -30 -29 21 -58 74 -58 104 0 19 8
20 181 20 l181 0 -7 58 c-12 96 -45 151 -111 185 -38 20 -118 29 -162 18z
m136 -81 c29 -18 62 -71 62 -100 0 -6 -50 -10 -140 -10 -153 0 -154 0 -122 58
37 70 131 94 200 52z"/>
<path d="M10870 945 l0 -235 40 0 40 0 0 235 0 235 -40 0 -40 0 0 -235z"/>
</g>
</svg>
